<svg width="25" height="24" viewBox="0 0 25 24" fill="none" xmlns="http://www.w3.org/2000/svg">
<path fill-rule="evenodd" clip-rule="evenodd" d="M5.5 16.25C5.69891 16.25 5.88968 16.329 6.03033 16.4697C6.17098 16.6103 6.25 16.8011 6.25 17V19C6.25 19.138 6.362 19.25 6.5 19.25H18.5C18.5663 19.25 18.6299 19.2237 18.6768 19.1768C18.7237 19.1299 18.75 19.0663 18.75 19V17C18.75 16.8011 18.829 16.6103 18.9697 16.4697C19.1103 16.329 19.3011 16.25 19.5 16.25C19.6989 16.25 19.8897 16.329 20.0303 16.4697C20.171 16.6103 20.25 16.8011 20.25 17V19C20.25 19.4641 20.0656 19.9092 19.7374 20.2374C19.4092 20.5656 18.9641 20.75 18.5 20.75H6.5C6.03587 20.75 5.59075 20.5656 5.26256 20.2374C4.93437 19.9092 4.75 19.4641 4.75 19V17C4.75 16.8011 4.82902 16.6103 4.96967 16.4697C5.11032 16.329 5.30109 16.25 5.5 16.25Z" fill="#F8F8F8"/>
<path d="M11.238 3.75C10.9898 3.75007 10.7507 3.84314 10.5678 4.01087C10.3849 4.17859 10.2715 4.40877 10.25 4.656C10.0961 6.40842 10.0687 8.16964 10.168 9.926C9.921 9.939 9.675 9.956 9.428 9.973L7.938 10.082C7.80678 10.0916 7.6803 10.1351 7.57094 10.2083C7.46158 10.2815 7.37309 10.3818 7.31413 10.4994C7.25516 10.617 7.22775 10.7479 7.23456 10.8793C7.24138 11.0107 7.28219 11.1381 7.353 11.249C8.41489 12.9111 9.7832 14.3561 11.385 15.507L11.982 15.936C12.133 16.0444 12.3141 16.1027 12.5 16.1027C12.6859 16.1027 12.867 16.0444 13.018 15.936L13.615 15.507C15.2168 14.3561 16.5851 12.9111 17.647 11.249C17.7178 11.1381 17.7586 11.0107 17.7654 10.8793C17.7723 10.7479 17.7448 10.617 17.6859 10.4994C17.6269 10.3818 17.5384 10.2815 17.4291 10.2083C17.3197 10.1351 17.1932 10.0916 17.062 10.082L15.572 9.973C15.3255 9.95517 15.0788 9.9395 14.832 9.926C14.9316 8.16967 14.9045 6.40844 14.751 4.656C14.7295 4.4086 14.6159 4.17828 14.4328 4.01053C14.2497 3.84278 14.0103 3.74982 13.762 3.75H11.238Z" fill="#F8F8F8"/>
</svg>
