<svg width="30" height="31" viewBox="0 0 30 31" fill="none" xmlns="http://www.w3.org/2000/svg">
<g clip-path="url(#clip0_188_10667)">
<g clip-path="url(#clip1_188_10667)">
<path d="M14.9996 0.414062C6.71117 0.414062 -0.0332031 7.15656 -0.0332031 15.4459C-0.0332031 23.7353 6.71117 30.4778 14.9996 30.4778C23.288 30.4778 30.0324 23.7353 30.0324 15.4459C30.0324 7.15656 23.288 0.414062 14.9996 0.414062ZM14.9996 29.4766C7.26336 29.4766 0.969922 23.1822 0.969922 15.4459C0.969922 7.70969 7.26336 1.41531 14.9996 1.41531C22.7359 1.41531 29.0293 7.70969 29.0293 15.4459C29.0293 23.1822 22.7359 29.4766 14.9996 29.4766Z" fill="#848484"/>
<path d="M23.2429 10.8016C23.3469 10.6091 23.4326 10.4073 23.4989 10.1988C23.5295 10.102 23.5302 9.99829 23.5006 9.90122C23.4711 9.80414 23.4129 9.7183 23.3335 9.65503C23.2542 9.59176 23.1576 9.55403 23.0564 9.54683C22.9552 9.53963 22.8542 9.56329 22.7667 9.61469C22.2863 9.90007 21.7663 10.1127 21.2236 10.2456C20.5647 9.65104 19.7091 9.32141 18.8217 9.32031C18.3395 9.32068 17.8624 9.41841 17.419 9.60762C16.9755 9.79683 16.5748 10.0736 16.2409 10.4215C15.907 10.7693 15.6468 11.1809 15.4759 11.6317C15.3049 12.0826 15.2267 12.5632 15.2461 13.045C13.1376 12.7796 11.2123 11.7127 9.8695 10.0656C9.81805 10.0032 9.7523 9.95417 9.67783 9.92262C9.60337 9.89107 9.52238 9.87796 9.44177 9.8844C9.36115 9.89084 9.28328 9.91665 9.21477 9.95962C9.14626 10.0026 9.08913 10.0615 9.04825 10.1313C8.74077 10.659 8.57364 11.2567 8.56281 11.8674C8.55198 12.4781 8.6978 13.0814 8.98637 13.6197C8.9156 13.6316 8.84761 13.6564 8.78575 13.6928C8.70995 13.7411 8.64754 13.8078 8.60428 13.8866C8.56103 13.9654 8.53832 14.0538 8.53825 14.1438C8.53825 15.2078 9.01168 16.1847 9.77481 16.8484L9.742 16.8813C9.68438 16.9464 9.64475 17.0255 9.62699 17.1106C9.60924 17.1958 9.61398 17.2841 9.64075 17.3669C9.79988 17.8633 10.0656 18.319 10.4193 18.7019C10.7729 19.0849 11.206 19.386 11.6882 19.5841C10.6979 20.0672 9.58952 20.2556 8.49512 20.1269C8.38263 20.1154 8.26951 20.1416 8.17348 20.2013C8.07746 20.261 8.00396 20.3509 7.9645 20.4569C7.9266 20.5636 7.92589 20.6801 7.96248 20.7873C7.99907 20.8945 8.07081 20.9862 8.16606 21.0475C9.65388 22.0024 11.3847 22.5097 13.1526 22.5091C18.9464 22.5091 22.4095 17.8028 22.4095 13.2531L22.4086 13.0994C22.9701 12.661 23.4578 12.1356 23.8532 11.5431C23.9131 11.4536 23.9426 11.3471 23.9372 11.2395C23.9319 11.1319 23.892 11.0288 23.8236 10.9456C23.7551 10.8624 23.6616 10.8035 23.5571 10.7776C23.4525 10.7516 23.3424 10.76 23.2429 10.8016ZM21.607 12.4469C21.539 12.4958 21.4843 12.561 21.4479 12.6365C21.4116 12.712 21.3947 12.7954 21.3989 12.8791C21.4045 13.0028 21.4073 13.1284 21.4073 13.2522C21.4073 17.3097 18.3201 21.5069 13.1536 21.5069C12.2321 21.5073 11.3171 21.3526 10.447 21.0494C11.4891 20.8497 12.4681 20.4028 13.3017 19.7463C13.3828 19.6823 13.4422 19.5948 13.4718 19.4958C13.5013 19.3967 13.4995 19.291 13.4667 19.193C13.4339 19.0951 13.3716 19.0096 13.2884 18.9484C13.2051 18.8871 13.105 18.8531 13.0017 18.8509C12.5975 18.8432 12.2007 18.7406 11.8434 18.5514C11.4861 18.3622 11.1783 18.0916 10.9448 17.7616C11.182 17.7456 11.4145 17.7063 11.6404 17.6453C11.7498 17.616 11.846 17.5506 11.9133 17.4596C11.9807 17.3686 12.0152 17.2575 12.0113 17.1444C12.0074 17.0313 11.9653 16.9228 11.8918 16.8367C11.8183 16.7506 11.7178 16.6919 11.6067 16.6703C11.1501 16.5774 10.7274 16.3622 10.3838 16.0476C10.0401 15.733 9.78849 15.331 9.65575 14.8844C9.90512 14.9472 10.1611 14.9837 10.417 14.9922C10.6373 14.9913 10.8417 14.8563 10.9101 14.6444C10.9786 14.4325 10.8979 14.1991 10.7114 14.0753C10.2703 13.7814 9.93061 13.3585 9.73882 12.8644C9.54703 12.3702 9.51246 11.8289 9.63981 11.3144C11.2683 12.9853 13.4672 13.9803 15.7973 14.1006C15.9623 14.1016 16.1067 14.0425 16.207 13.9216C16.3073 13.8006 16.3457 13.6403 16.3101 13.4866C16.1819 12.9344 16.2393 12.3553 16.4733 11.839C16.7073 11.3227 17.105 10.8979 17.6048 10.6304C18.1046 10.3629 18.6786 10.2676 19.2381 10.3592C19.7975 10.4508 20.3111 10.7242 20.6995 11.1372C20.7577 11.1993 20.8308 11.2456 20.9118 11.2716C20.9928 11.2977 21.0791 11.3027 21.1626 11.2863C21.3173 11.2553 21.4701 11.2197 21.6211 11.1784C21.553 11.2294 21.4823 11.2766 21.4092 11.32C21.312 11.3796 21.2379 11.4704 21.1993 11.5777C21.1607 11.685 21.1597 11.8022 21.1966 11.91C21.2335 12.0179 21.3061 12.11 21.4023 12.1711C21.4985 12.2322 21.6127 12.2587 21.7261 12.2463L21.8967 12.2247C21.8027 12.3021 21.7061 12.3762 21.607 12.4469Z" fill="#848484"/>
<path d="M13 19.4458C13.4 20.2458 11.0005 20.7791 10.0005 20.9458C14.0001 22.9458 18.5002 20.1125 20.0005 18.4458V17.9458C21.6005 17.1458 21.6671 14.2791 21.5005 12.9458L22.5005 12.4458L22.0005 11.4458L21.5005 10.9458L18.5005 9.9458L17.5005 10.4458L16.5005 11.4458L16.0005 12.4458V13.9458C13.6005 14.3458 10.6668 12.1125 9.5 10.9458C8.7 11.7458 9.5 13.2791 10 13.9458L9.5 14.4458V15.4458C10.1667 15.9458 10.9005 17.0458 10.5005 17.4458C10.1005 17.8458 12.1667 18.9458 13 19.4458Z" fill="#848484"/>
</g>
</g>
<defs>
<clipPath id="clip0_188_10667">
<rect width="30" height="30" fill="white" transform="translate(0 0.445312)"/>
</clipPath>
<clipPath id="clip1_188_10667">
<rect width="30" height="30" fill="white" transform="translate(0 0.445312)"/>
</clipPath>
</defs>
</svg>
