<svg width="27" height="27" viewBox="0 0 27 27" fill="none" xmlns="http://www.w3.org/2000/svg">
<path fill-rule="evenodd" clip-rule="evenodd" d="M13.5 2.53125C7.44187 2.53125 2.53125 7.44187 2.53125 13.5C2.53125 19.5581 7.44187 24.4688 13.5 24.4688C19.5581 24.4688 24.4688 19.5581 24.4688 13.5C24.4688 7.44187 19.5581 2.53125 13.5 2.53125ZM14.3438 6.75C14.3438 6.52622 14.2549 6.31161 14.0966 6.15338C13.9384 5.99514 13.7238 5.90625 13.5 5.90625C13.2762 5.90625 13.0616 5.99514 12.9034 6.15338C12.7451 6.31161 12.6562 6.52622 12.6562 6.75V13.5C12.6562 13.9657 13.0343 14.3438 13.5 14.3438H18.5625C18.7863 14.3438 19.0009 14.2549 19.1591 14.0966C19.3174 13.9384 19.4062 13.7238 19.4062 13.5C19.4062 13.2762 19.3174 13.0616 19.1591 12.9034C19.0009 12.7451 18.7863 12.6562 18.5625 12.6562H14.3438V6.75Z" fill="#00A7E1" fill-opacity="0.95"/>
</svg>
