<svg width="126" height="74" viewBox="0 0 126 74" fill="none" xmlns="http://www.w3.org/2000/svg">
<rect x="1.87502" y="1.00095" width="122.248" height="72.0013" rx="29" stroke="#00A7E1" stroke-width="2" stroke-dasharray="10 10"/>
<path fill-rule="evenodd" clip-rule="evenodd" d="M63.6355 24.364C63.4668 24.1955 63.238 24.1008 62.9995 24.1008C62.761 24.1008 62.5323 24.1955 62.3635 24.364L56.3637 30.3642C56.2752 30.4466 56.2043 30.5459 56.1551 30.6563C56.1059 30.7667 56.0795 30.8859 56.0774 31.0068C56.0752 31.1276 56.0975 31.2476 56.1427 31.3597C56.188 31.4718 56.2554 31.5736 56.3408 31.659C56.4263 31.7445 56.5281 31.8119 56.6402 31.8571C56.7522 31.9024 56.8723 31.9246 56.9931 31.9225C57.114 31.9203 57.2331 31.8939 57.3435 31.8447C57.4539 31.7955 57.5533 31.7246 57.6357 31.6362L62.0996 27.1721L62.0999 41.0001C62.0999 41.2387 62.1947 41.4677 62.3635 41.6364C62.5323 41.8052 62.7612 41.9 62.9999 41.9C63.2386 41.9 63.4675 41.8052 63.6363 41.6364C63.8051 41.4676 63.8999 41.2387 63.8999 41L63.8996 27.172L68.3637 31.6359C68.4461 31.7243 68.5454 31.7953 68.6558 31.8444C68.7662 31.8936 68.8854 31.9201 69.0063 31.9222C69.1271 31.9243 69.2471 31.9021 69.3592 31.8568C69.4713 31.8116 69.5731 31.7442 69.6585 31.6587C69.744 31.5733 69.8114 31.4715 69.8566 31.3594C69.9019 31.2473 69.9241 31.1273 69.922 31.0065C69.9198 30.8856 69.8934 30.7664 69.8442 30.656C69.795 30.5456 69.7241 30.4463 69.6357 30.3639L63.6355 24.364ZM52.9999 42.0003C53.2651 42.0003 53.5195 42.1056 53.707 42.2931C53.8946 42.4807 53.9999 42.735 53.9999 43.0002L54 46.0002C54 47.1082 54.8921 48.0002 55.9921 48.0002L70.0021 47.9999C70.2646 47.9999 70.5246 47.9481 70.7671 47.8476C71.0096 47.747 71.23 47.5997 71.4155 47.4139C71.6011 47.2282 71.7482 47.0077 71.8485 46.765C71.9488 46.5224 72.0003 46.2624 72 45.9998L71.9999 42.9998C71.9999 42.7346 72.1053 42.4803 72.2928 42.2927C72.4803 42.1052 72.7347 41.9998 72.9999 41.9998C73.2651 41.9998 73.5195 42.1052 73.707 42.2927C73.8946 42.4802 73.9999 42.7346 73.9999 42.9998L74 45.9998C74 47.0603 73.5789 48.0774 72.8292 48.8275C72.0795 49.5776 71.0626 49.9993 70.0021 49.9999L55.9921 50.0002C55.4673 49.9999 54.9476 49.8963 54.4629 49.6951C53.9781 49.4939 53.5378 49.1991 53.1671 48.8276C52.7963 48.4561 52.5024 48.0152 52.3022 47.5301C52.1019 47.045 51.9992 46.5251 52 46.0003L51.9999 43.0003C51.9999 42.7351 52.1053 42.4807 52.2928 42.2932C52.4804 42.1056 52.7347 42.0003 52.9999 42.0003Z" fill="#00A7E1"/>
</svg>
