<?xml version="1.0" encoding="UTF-8" standalone="no"?>
<!-- Generator: Adobe Illustrator 24.1.2, SVG Export Plug-In . SVG Version: 6.00 Build 0)  -->

<svg
   version="1.1"
   id="Layer_1"
   x="0px"
   y="0px"
   viewBox="0 0 902.3 192.6"
   style="enable-background:new 0 0 902.3 192.6;"
   xml:space="preserve"
   sodipodi:docname="logo_institucional_colorido.svg"
   inkscape:version="1.2.1 (9c6d41e410, 2022-07-14)"
   xmlns:inkscape="http://www.inkscape.org/namespaces/inkscape"
   xmlns:sodipodi="http://sodipodi.sourceforge.net/DTD/sodipodi-0.dtd"
   xmlns="http://www.w3.org/2000/svg"
   xmlns:svg="http://www.w3.org/2000/svg"><defs
   id="defs23" /><sodipodi:namedview
   id="namedview21"
   pagecolor="#505050"
   bordercolor="#eeeeee"
   borderopacity="1"
   inkscape:showpageshadow="0"
   inkscape:pageopacity="0"
   inkscape:pagecheckerboard="0"
   inkscape:deskcolor="#505050"
   showgrid="false"
   inkscape:zoom="1.4518453"
   inkscape:cx="451.49438"
   inkscape:cy="96.773396"
   inkscape:window-width="1920"
   inkscape:window-height="1051"
   inkscape:window-x="-9"
   inkscape:window-y="-9"
   inkscape:window-maximized="1"
   inkscape:current-layer="Layer_1" />
<style
   type="text/css"
   id="style2">
	.st0{fill:#393185;}
	.st1{fill-rule:evenodd;clip-rule:evenodd;fill:#393185;}
	.st2{fill-rule:evenodd;clip-rule:evenodd;fill:#FFE200;}
	.st3{fill:#2B2A29;}
</style>
<path
   class="st0"
   d="M239.7,183.1l2.4-0.2c0.1,1,0.4,1.7,0.8,2.4c0.4,0.6,1.1,1.1,1.9,1.5c0.9,0.4,1.9,0.6,2.9,0.6  c1,0,1.8-0.1,2.6-0.4c0.7-0.3,1.3-0.7,1.7-1.2c0.4-0.5,0.5-1.1,0.5-1.6c0-0.6-0.2-1.1-0.5-1.6c-0.3-0.5-0.9-0.8-1.7-1.1  c-0.5-0.2-1.7-0.5-3.4-0.9c-1.8-0.4-3-0.8-3.7-1.2c-0.9-0.5-1.6-1.1-2.1-1.8c-0.4-0.7-0.7-1.5-0.7-2.4c0-1,0.3-1.9,0.8-2.7  c0.5-0.8,1.4-1.5,2.4-1.9c1.1-0.4,2.2-0.7,3.5-0.7c1.4,0,2.7,0.2,3.8,0.7c1.1,0.5,1.9,1.1,2.5,2c0.6,0.9,0.9,1.9,0.9,3l-2.4,0.2  c-0.1-1.2-0.6-2.1-1.3-2.8c-0.8-0.6-1.9-0.9-3.3-0.9c-1.5,0-2.7,0.3-3.4,0.8c-0.7,0.6-1.1,1.2-1.1,2c0,0.7,0.2,1.3,0.7,1.7  c0.5,0.4,1.8,0.9,3.8,1.4c2.1,0.5,3.5,0.9,4.3,1.2c1.1,0.5,1.9,1.2,2.5,2c0.5,0.8,0.8,1.7,0.8,2.7c0,1-0.3,2-0.9,2.9  c-0.6,0.9-1.4,1.6-2.5,2.1c-1.1,0.5-2.3,0.8-3.7,0.8c-1.7,0-3.2-0.2-4.4-0.8c-1.2-0.5-2.1-1.3-2.8-2.3  C240.1,185.6,239.7,184.4,239.7,183.1L239.7,183.1z M261.1,189.3v-19.2h2.5v19.2H261.1z M269.4,183.1l2.4-0.2c0.1,1,0.4,1.7,0.8,2.4  c0.4,0.6,1.1,1.1,1.9,1.5c0.9,0.4,1.9,0.6,3,0.6c1,0,1.8-0.1,2.6-0.4c0.7-0.3,1.3-0.7,1.7-1.2c0.4-0.5,0.5-1.1,0.5-1.6  c0-0.6-0.2-1.1-0.5-1.6c-0.3-0.5-0.9-0.8-1.7-1.1c-0.5-0.2-1.7-0.5-3.4-0.9c-1.8-0.4-3-0.8-3.7-1.2c-0.9-0.5-1.6-1.1-2.1-1.8  c-0.4-0.7-0.7-1.5-0.7-2.4c0-1,0.3-1.9,0.8-2.7c0.5-0.8,1.4-1.5,2.4-1.9c1.1-0.4,2.2-0.7,3.5-0.7c1.4,0,2.7,0.2,3.8,0.7  c1.1,0.5,1.9,1.1,2.5,2c0.6,0.9,0.9,1.9,0.9,3l-2.4,0.2c-0.1-1.2-0.6-2.1-1.3-2.8c-0.8-0.6-1.9-0.9-3.3-0.9c-1.5,0-2.7,0.3-3.4,0.8  c-0.7,0.6-1.1,1.2-1.1,2c0,0.7,0.2,1.3,0.7,1.7c0.5,0.4,1.8,0.9,3.8,1.4c2.1,0.5,3.5,0.9,4.3,1.2c1.1,0.5,1.9,1.2,2.5,2  c0.5,0.8,0.8,1.7,0.8,2.7c0,1-0.3,2-0.9,2.9c-0.6,0.9-1.4,1.6-2.5,2.1c-1.1,0.5-2.3,0.8-3.7,0.8c-1.7,0-3.2-0.2-4.4-0.8  c-1.2-0.5-2.1-1.3-2.8-2.3C269.8,185.6,269.4,184.4,269.4,183.1L269.4,183.1z M295.2,189.3v-16.9h-6.3v-2.3h15.2v2.3h-6.4v16.9  H295.2z M308.9,189.3v-19.2h13.9v2.3h-11.4v5.9h10.6v2.3h-10.6v6.5h11.8v2.3L308.9,189.3L308.9,189.3z M328.8,189.3v-19.2h3.8  l4.5,13.6c0.4,1.3,0.7,2.2,0.9,2.8c0.2-0.7,0.6-1.7,1-3.1l4.6-13.4h3.4v19.2h-2.5v-16.1l-5.6,16.1h-2.3l-5.6-16.4v16.4H328.8z   M351.3,189.3l7.4-19.2h2.7l7.9,19.2h-2.9l-2.2-5.8h-8l-2.1,5.8H351.3L351.3,189.3z M356.9,181.4h6.5l-2-5.3c-0.6-1.6-1.1-2.9-1.4-4  c-0.2,1.2-0.6,2.5-1,3.7L356.9,181.4z M372.6,183.1l2.4-0.2c0.1,1,0.4,1.7,0.8,2.4c0.4,0.6,1.1,1.1,1.9,1.5c0.9,0.4,1.9,0.6,2.9,0.6  c1,0,1.8-0.1,2.6-0.4c0.7-0.3,1.3-0.7,1.7-1.2c0.4-0.5,0.5-1.1,0.5-1.6c0-0.6-0.2-1.1-0.5-1.6c-0.4-0.5-0.9-0.8-1.7-1.1  c-0.5-0.2-1.7-0.5-3.4-0.9c-1.8-0.4-3-0.8-3.7-1.2c-0.9-0.5-1.6-1.1-2.1-1.8c-0.4-0.7-0.7-1.5-0.7-2.4c0-1,0.3-1.9,0.8-2.7  c0.5-0.8,1.4-1.5,2.4-1.9c1.1-0.4,2.2-0.7,3.5-0.7c1.4,0,2.7,0.2,3.8,0.7c1.1,0.5,1.9,1.1,2.5,2c0.6,0.9,0.9,1.9,0.9,3l-2.4,0.2  c-0.1-1.2-0.6-2.1-1.3-2.8c-0.8-0.6-1.9-0.9-3.3-0.9c-1.5,0-2.7,0.3-3.4,0.8c-0.7,0.6-1.1,1.2-1.1,2c0,0.7,0.3,1.3,0.7,1.7  c0.5,0.4,1.8,0.9,3.8,1.4c2.1,0.5,3.5,0.9,4.3,1.2c1.1,0.5,1.9,1.2,2.5,2c0.5,0.8,0.8,1.7,0.8,2.7c0,1-0.3,2-0.9,2.9  c-0.6,0.9-1.4,1.6-2.5,2.1c-1.1,0.5-2.3,0.8-3.7,0.8c-1.7,0-3.2-0.2-4.4-0.8c-1.2-0.5-2.1-1.3-2.8-2.3  C373,185.6,372.7,184.4,372.6,183.1L372.6,183.1z M393.9,189.3v-2.7h2.7v2.7c0,1-0.2,1.8-0.5,2.4c-0.4,0.6-0.9,1.1-1.7,1.4l-0.7-1  c0.5-0.2,0.9-0.5,1.1-1c0.2-0.4,0.4-1,0.4-1.8H393.9z M415,189.3v-16.9h-6.3v-2.3h15.2v2.3h-6.4v16.9H415L415,189.3z M428.8,189.3  v-19.2h13.9v2.3h-11.4v5.9h10.6v2.3h-10.6v6.5h11.8v2.3L428.8,189.3L428.8,189.3z M462.5,182.6l2.5,0.6c-0.5,2.1-1.5,3.7-2.9,4.8  c-1.4,1.1-3.1,1.6-5.1,1.6c-2.1,0-3.8-0.4-5-1.3c-1.3-0.8-2.3-2.1-3-3.7c-0.7-1.6-1-3.3-1-5.2c0-2,0.4-3.7,1.1-5.2  c0.8-1.5,1.9-2.6,3.3-3.4c1.4-0.8,3-1.2,4.7-1.2c1.9,0,3.5,0.5,4.8,1.5c1.3,1,2.2,2.4,2.7,4.1l-2.5,0.6c-0.4-1.4-1.1-2.4-1.9-3.1  c-0.8-0.6-1.9-1-3.2-1c-1.5,0-2.7,0.4-3.7,1.1c-1,0.7-1.7,1.7-2.1,2.9c-0.4,1.2-0.6,2.4-0.6,3.7c0,1.6,0.2,3.1,0.7,4.3  c0.5,1.2,1.2,2.1,2.2,2.7c1,0.6,2.1,0.9,3.3,0.9c1.4,0,2.6-0.4,3.6-1.2C461.5,185.4,462.1,184.2,462.5,182.6L462.5,182.6z   M470.3,189.3v-19.2h2.6l10.1,15.1v-15.1h2.4v19.2h-2.6l-10.1-15.1v15.1H470.3z M491.1,180c0-3.2,0.9-5.7,2.6-7.5  c1.7-1.8,3.9-2.7,6.6-2.7c1.8,0,3.4,0.4,4.8,1.3c1.4,0.9,2.5,2,3.3,3.5c0.7,1.5,1.1,3.2,1.1,5.2c0,2-0.4,3.7-1.2,5.2  c-0.8,1.5-1.9,2.7-3.3,3.5c-1.4,0.8-3,1.2-4.7,1.2c-1.8,0-3.4-0.4-4.8-1.3c-1.4-0.9-2.5-2.1-3.2-3.6  C491.4,183.2,491.1,181.6,491.1,180L491.1,180z M493.7,180c0,2.3,0.6,4.1,1.9,5.5c1.2,1.3,2.8,2,4.7,2c1.9,0,3.5-0.7,4.7-2  c1.2-1.3,1.9-3.3,1.9-5.7c0-1.6-0.3-2.9-0.8-4.1c-0.5-1.2-1.3-2.1-2.3-2.7c-1-0.6-2.2-1-3.4-1c-1.8,0-3.3,0.6-4.6,1.9  C494.3,175,493.7,177.1,493.7,180z M514.8,189.3v-19.2h2.5V187h9.5v2.3H514.8z M531.2,180c0-3.2,0.9-5.7,2.6-7.5  c1.7-1.8,3.9-2.7,6.6-2.7c1.8,0,3.4,0.4,4.8,1.3c1.4,0.9,2.5,2,3.3,3.5c0.7,1.5,1.1,3.2,1.1,5.2c0,2-0.4,3.7-1.2,5.2  c-0.8,1.5-1.9,2.7-3.3,3.5c-1.4,0.8-3,1.2-4.7,1.2c-1.8,0-3.4-0.4-4.9-1.3c-1.4-0.9-2.5-2.1-3.2-3.6  C531.6,183.2,531.2,181.6,531.2,180z M533.8,180c0,2.3,0.6,4.1,1.9,5.5c1.2,1.3,2.8,2,4.7,2c1.9,0,3.5-0.7,4.7-2  c1.2-1.3,1.9-3.3,1.9-5.7c0-1.6-0.3-2.9-0.8-4.1c-0.5-1.2-1.3-2.1-2.3-2.7c-1-0.6-2.2-1-3.4-1c-1.8,0-3.4,0.6-4.7,1.9  C534.5,175,533.8,177.1,533.8,180z M564,181.8v-2.3l8.1,0v7.1c-1.2,1-2.5,1.7-3.9,2.3c-1.3,0.5-2.7,0.8-4.1,0.8  c-1.9,0-3.6-0.4-5.1-1.2c-1.5-0.8-2.7-2-3.5-3.5c-0.8-1.5-1.2-3.2-1.2-5.1c0-1.9,0.4-3.6,1.2-5.2c0.8-1.6,1.9-2.8,3.4-3.6  c1.5-0.8,3.2-1.2,5.1-1.2c1.4,0,2.6,0.2,3.8,0.7c1.1,0.4,2,1.1,2.6,1.9c0.6,0.8,1.1,1.9,1.5,3.1l-2.3,0.6c-0.3-1-0.7-1.8-1.1-2.3  c-0.4-0.6-1-1-1.8-1.3c-0.8-0.3-1.7-0.5-2.6-0.5c-1.2,0-2.2,0.2-3,0.5c-0.8,0.4-1.5,0.8-2.1,1.4c-0.5,0.6-0.9,1.2-1.2,1.9  c-0.5,1.2-0.7,2.5-0.7,3.9c0,1.7,0.3,3.1,0.9,4.3c0.6,1.2,1.4,2,2.6,2.6c1.1,0.6,2.3,0.8,3.6,0.8c1.1,0,2.2-0.2,3.2-0.6  c1.1-0.4,1.8-0.9,2.4-1.4v-3.6L564,181.8L564,181.8z M578.5,189.3v-19.2h2.5v19.2H578.5z M585.6,189.3l7.4-19.2h2.7l7.9,19.2h-2.9  l-2.2-5.8h-8l-2.1,5.8H585.6L585.6,189.3z M591.1,181.4h6.5l-2-5.3c-0.6-1.6-1.1-2.9-1.4-4c-0.2,1.2-0.6,2.5-1,3.7L591.1,181.4z   M606.9,183.1l2.4-0.2c0.1,1,0.4,1.7,0.8,2.4c0.4,0.6,1.1,1.1,1.9,1.5c0.9,0.4,1.9,0.6,2.9,0.6c1,0,1.8-0.1,2.6-0.4  c0.7-0.3,1.3-0.7,1.7-1.2c0.4-0.5,0.5-1.1,0.5-1.6c0-0.6-0.2-1.1-0.5-1.6c-0.4-0.5-0.9-0.8-1.7-1.1c-0.5-0.2-1.7-0.5-3.4-0.9  c-1.8-0.4-3-0.8-3.7-1.2c-0.9-0.5-1.6-1.1-2.1-1.8c-0.4-0.7-0.7-1.5-0.7-2.4c0-1,0.3-1.9,0.8-2.7c0.5-0.8,1.4-1.5,2.4-1.9  c1.1-0.4,2.2-0.7,3.5-0.7c1.4,0,2.7,0.2,3.8,0.7c1.1,0.5,1.9,1.1,2.5,2c0.6,0.9,0.9,1.9,0.9,3l-2.4,0.2c-0.1-1.2-0.6-2.1-1.3-2.8  c-0.8-0.6-1.9-0.9-3.3-0.9c-1.5,0-2.7,0.3-3.4,0.8c-0.7,0.6-1.1,1.2-1.1,2c0,0.7,0.2,1.3,0.7,1.7c0.5,0.4,1.8,0.9,3.8,1.4  c2.1,0.5,3.5,0.9,4.3,1.2c1.1,0.5,1.9,1.2,2.5,2c0.5,0.8,0.8,1.7,0.8,2.7c0,1-0.3,2-0.9,2.9c-0.6,0.9-1.4,1.6-2.5,2.1  c-1.1,0.5-2.3,0.8-3.7,0.8c-1.7,0-3.2-0.2-4.4-0.8c-1.2-0.5-2.1-1.3-2.8-2.3C607.3,185.6,606.9,184.4,606.9,183.1L606.9,183.1z   M635.3,189.3v-19.2h13.9v2.3h-11.4v5.9h10.6v2.3h-10.6v6.5h11.8v2.3L635.3,189.3L635.3,189.3z M663.2,189.3v-19.2h2.5v19.2H663.2z   M672.4,189.3v-19.2h2.6l10.1,15.1v-15.1h2.4v19.2h-2.6l-10.1-15.1v15.1H672.4z M693.9,189.3v-19.2h6.6c1.5,0,2.6,0.1,3.4,0.3  c1.1,0.2,2,0.7,2.8,1.4c1,0.9,1.8,1.9,2.3,3.3c0.5,1.3,0.8,2.9,0.8,4.6c0,1.5-0.2,2.8-0.5,3.9c-0.3,1.1-0.8,2.1-1.3,2.8  c-0.5,0.7-1.1,1.3-1.7,1.7c-0.6,0.4-1.4,0.7-2.3,1c-0.9,0.2-1.9,0.3-3.1,0.3L693.9,189.3L693.9,189.3z M696.5,187h4.1  c1.3,0,2.3-0.1,3-0.4c0.7-0.2,1.3-0.6,1.7-1c0.6-0.6,1.1-1.4,1.4-2.4c0.3-1,0.5-2.3,0.5-3.7c0-2-0.3-3.6-1-4.6  c-0.7-1.1-1.5-1.8-2.4-2.2c-0.7-0.3-1.8-0.4-3.3-0.4h-4V187z M728.1,170.1h2.5v11.1c0,1.9-0.2,3.5-0.7,4.6c-0.4,1.1-1.2,2.1-2.4,2.8  c-1.1,0.7-2.6,1.1-4.5,1.1c-1.8,0-3.3-0.3-4.4-0.9c-1.1-0.6-2-1.5-2.5-2.7c-0.5-1.2-0.7-2.8-0.7-4.8v-11.1h2.5v11.1  c0,1.7,0.2,2.9,0.5,3.7c0.3,0.8,0.8,1.4,1.6,1.8c0.8,0.4,1.7,0.6,2.8,0.6c1.9,0,3.2-0.4,4-1.3c0.8-0.8,1.2-2.5,1.2-4.9V170.1z   M736.1,183.1l2.4-0.2c0.1,1,0.4,1.7,0.8,2.4c0.4,0.6,1.1,1.1,1.9,1.5c0.9,0.4,1.9,0.6,2.9,0.6c1,0,1.8-0.1,2.6-0.4  c0.7-0.3,1.3-0.7,1.7-1.2c0.4-0.5,0.5-1.1,0.5-1.6c0-0.6-0.2-1.1-0.5-1.6c-0.4-0.5-0.9-0.8-1.7-1.1c-0.5-0.2-1.7-0.5-3.4-0.9  c-1.8-0.4-3-0.8-3.7-1.2c-0.9-0.5-1.6-1.1-2.1-1.8c-0.4-0.7-0.7-1.5-0.7-2.4c0-1,0.3-1.9,0.8-2.7c0.5-0.8,1.4-1.5,2.4-1.9  c1.1-0.4,2.2-0.7,3.5-0.7c1.4,0,2.7,0.2,3.8,0.7c1.1,0.5,1.9,1.1,2.5,2c0.6,0.9,0.9,1.9,0.9,3l-2.4,0.2c-0.1-1.2-0.6-2.1-1.3-2.8  c-0.8-0.6-1.9-0.9-3.3-0.9c-1.5,0-2.7,0.3-3.4,0.8c-0.7,0.6-1.1,1.2-1.1,2c0,0.7,0.2,1.3,0.7,1.7c0.5,0.4,1.8,0.9,3.8,1.4  c2.1,0.5,3.5,0.9,4.3,1.2c1.1,0.5,1.9,1.2,2.5,2c0.5,0.8,0.8,1.7,0.8,2.7c0,1-0.3,2-0.9,2.9c-0.6,0.9-1.4,1.6-2.5,2.1  c-1.1,0.5-2.3,0.8-3.7,0.8c-1.7,0-3.2-0.2-4.4-0.8c-1.2-0.5-2.1-1.3-2.8-2.3C736.5,185.6,736.2,184.4,736.1,183.1L736.1,183.1z   M762,189.3v-16.9h-6.3v-2.3h15.2v2.3h-6.4v16.9H762z M775.7,189.3v-19.2h8.5c1.7,0,3,0.2,3.9,0.5c0.9,0.3,1.6,1,2.1,1.8  c0.5,0.9,0.8,1.8,0.8,2.9c0,1.4-0.4,2.5-1.3,3.4c-0.9,0.9-2.2,1.5-4.1,1.8c0.7,0.3,1.2,0.6,1.5,1c0.7,0.7,1.4,1.5,2.1,2.6l3.3,5.2  h-3.2l-2.5-4c-0.7-1.2-1.4-2-1.8-2.6c-0.5-0.6-0.9-1-1.3-1.3c-0.4-0.2-0.8-0.4-1.2-0.5c-0.3-0.1-0.8-0.1-1.4-0.1h-3v8.5L775.7,189.3  L775.7,189.3z M778.2,178.6h5.5c1.2,0,2.1-0.1,2.7-0.4c0.7-0.2,1.2-0.6,1.5-1.2c0.3-0.5,0.5-1.1,0.5-1.7c0-0.9-0.3-1.7-1-2.2  c-0.7-0.6-1.7-0.9-3.1-0.9h-6.1V178.6L778.2,178.6z M797.6,189.3v-19.2h2.5v19.2H797.6z M804.7,189.3l7.4-19.2h2.7l7.9,19.2h-2.9  l-2.2-5.8h-8l-2.1,5.8H804.7z M810.2,181.4h6.5l-2-5.3c-0.6-1.6-1.1-2.9-1.4-4c-0.2,1.2-0.6,2.5-1,3.7L810.2,181.4z M827.2,189.3  v-2.7h2.7v2.7c0,1-0.2,1.8-0.5,2.4c-0.4,0.6-0.9,1.1-1.7,1.4l-0.7-1c0.5-0.2,0.9-0.5,1.1-1c0.2-0.4,0.4-1,0.4-1.8H827.2L827.2,189.3  z M843.1,183.1l2.4-0.2c0.1,1,0.4,1.7,0.8,2.4c0.4,0.6,1.1,1.1,1.9,1.5c0.9,0.4,1.9,0.6,3,0.6c1,0,1.8-0.1,2.6-0.4  c0.7-0.3,1.3-0.7,1.7-1.2c0.4-0.5,0.5-1.1,0.5-1.6c0-0.6-0.2-1.1-0.5-1.6c-0.3-0.5-0.9-0.8-1.7-1.1c-0.5-0.2-1.7-0.5-3.4-0.9  c-1.8-0.4-3-0.8-3.7-1.2c-0.9-0.5-1.6-1.1-2.1-1.8c-0.4-0.7-0.7-1.5-0.7-2.4c0-1,0.3-1.9,0.8-2.7c0.6-0.8,1.4-1.5,2.4-1.9  c1.1-0.4,2.2-0.7,3.5-0.7c1.4,0,2.7,0.2,3.8,0.7c1.1,0.5,1.9,1.1,2.5,2c0.6,0.9,0.9,1.9,0.9,3l-2.4,0.2c-0.1-1.2-0.6-2.1-1.3-2.8  c-0.8-0.6-1.9-0.9-3.3-0.9c-1.5,0-2.7,0.3-3.4,0.8c-0.7,0.6-1.1,1.2-1.1,2c0,0.7,0.3,1.3,0.7,1.7c0.5,0.4,1.8,0.9,3.8,1.4  c2.1,0.5,3.5,0.9,4.3,1.2c1.1,0.5,1.9,1.2,2.5,2c0.5,0.8,0.8,1.7,0.8,2.7c0,1-0.3,2-0.9,2.9c-0.6,0.9-1.4,1.6-2.5,2.1  c-1.1,0.5-2.3,0.8-3.7,0.8c-1.7,0-3.2-0.2-4.4-0.8c-1.2-0.5-2.1-1.3-2.8-2.3C843.4,185.6,843.1,184.4,843.1,183.1L843.1,183.1z   M864.4,189.3v-2.7h2.7v2.7H864.4z M871.5,189.3l7.4-19.2h2.7l7.9,19.2h-2.9l-2.2-5.8h-8l-2.1,5.8H871.5z M877,181.4h6.5l-2-5.3  c-0.6-1.6-1.1-2.9-1.4-4c-0.2,1.2-0.6,2.5-1,3.7L877,181.4z M894,189.3v-2.7h2.7v2.7H894z"
   id="path4"
   style="fill:#ffffff" />
<path
   class="st1"
   d="M24.6,3.1h43.3c-28.6,10-51.2,32.6-61.2,61.2V21C6.7,11.2,14.8,3.1,24.6,3.1z M133.3,3.1h43.3  c9.8,0,17.9,8.1,17.9,17.9v43.3C184.5,35.7,161.9,13.1,133.3,3.1z M194.5,129.7V173c0,9.8-8.1,17.9-17.9,17.9h-43.3  C161.9,180.9,184.5,158.3,194.5,129.7z M67.9,190.9H24.6c-9.8,0-17.9-8.1-17.9-17.9v-43.3C16.7,158.3,39.3,180.9,67.9,190.9  L67.9,190.9z"
   id="path6"
   style="fill:#ffffff" />
<path
   class="st2"
   d="M100.6,3.1c51.8,0,93.9,42,93.9,93.9c0,51.8-42,93.9-93.9,93.9c-51.8,0-93.9-42-93.9-93.9  C6.7,45.1,48.8,3.1,100.6,3.1z"
   id="path8"
   style="fill:#ffffff" />
<path
   class="st0"
   d="M237.2,101.1L265,101v1.7c0,3.5,0.8,5.8,2.5,7.1c1.7,1.2,5.3,1.8,10.7,1.8h35.4c3.5,0,6-0.6,7.5-1.8  c1.5-1.2,2.2-3.1,2.2-5.8c0-2.8-0.9-4.8-2.6-6c-1.7-1.2-5.4-2-11.1-2.4l-44.3-1c-11.1-0.3-18.6-2.4-22.5-6.3  c-3.9-3.9-5.9-10.9-5.9-21.2c0-5.3,0.5-9.7,1.5-13.1c1-3.4,2.7-6.3,5-8.6c2.7-2.6,6.2-4.4,10.5-5.5c4.3-1.1,11.4-1.6,21.2-1.6h43.1  c10.7,0,18.4,1.9,23,5.8c4.7,3.9,7,10.2,7,18.9c0,0.6,0,1.2,0,1.9c0,0.7-0.1,1.7-0.2,3.2h-27.2v-0.4c0-3-0.8-5.3-2.3-6.9  c-1.5-1.5-3.9-2.3-7-2.3h-32.5c-5.4,0-9,0.5-10.7,1.6c-1.7,1.1-2.6,3-2.6,5.7c0,2.6,0.8,4.6,2.4,5.7c1.6,1.2,4.5,1.9,8.7,2.3  l46.4,0.7c10.6,0.3,18,2.7,22.4,7.1c4.3,4.5,6.5,12.1,6.5,22.9c0,6.4-0.8,11.4-2.4,14.9c-1.6,3.5-4.3,6.5-8,9  c-2.5,1.6-5.9,2.7-10.1,3.4c-4.3,0.7-10.4,1-18.5,1h-37.6c-15.4,0-25.7-1.7-31-5.2c-5.2-3.4-7.8-9.9-7.8-19.3c0-0.5,0-1.4,0.1-2.7  C237,104.4,237.1,102.9,237.2,101.1L237.2,101.1z M397.8,131.8h-28.2V39.4h28.2V131.8z M416.6,101.1l27.8-0.1v1.7  c0,3.5,0.8,5.8,2.5,7.1c1.7,1.2,5.3,1.8,10.7,1.8h35.4c3.5,0,6-0.6,7.5-1.8c1.5-1.2,2.2-3.1,2.2-5.8c0-2.8-0.9-4.8-2.6-6  c-1.7-1.2-5.4-2-11.1-2.4l-44.3-1c-11.1-0.3-18.6-2.4-22.5-6.3c-3.9-3.9-5.9-10.9-5.9-21.2c0-5.3,0.5-9.7,1.5-13.1  c1-3.4,2.7-6.3,5-8.6c2.7-2.6,6.2-4.4,10.5-5.5c4.3-1.1,11.4-1.6,21.2-1.6h43.1c10.7,0,18.4,1.9,23,5.8c4.7,3.9,7,10.2,7,18.9  c0,0.6,0,1.2,0,1.9c0,0.7-0.1,1.7-0.2,3.2h-27.2v-0.4c0-3-0.8-5.3-2.3-6.9c-1.5-1.5-3.9-2.3-7-2.3h-32.5c-5.4,0-9,0.5-10.7,1.6  c-1.7,1.1-2.6,3-2.6,5.7c0,2.6,0.8,4.6,2.4,5.7c1.6,1.2,4.5,1.9,8.7,2.3l46.4,0.7c10.6,0.3,18,2.7,22.4,7.1  c4.3,4.5,6.5,12.1,6.5,22.9c0,6.4-0.8,11.4-2.4,14.9c-1.6,3.5-4.3,6.5-8,9c-2.5,1.6-5.9,2.7-10.1,3.4c-4.3,0.7-10.4,1-18.5,1H455  c-15.4,0-25.7-1.7-31-5.2c-5.2-3.4-7.8-9.9-7.8-19.3c0-0.5,0-1.4,0.1-2.7C416.4,104.4,416.5,102.9,416.6,101.1L416.6,101.1z   M608.3,131.8h-28.2V62h-38.6V39.4h105.4V62h-38.6V131.8z M760.2,61.9h-72.7v14h68.5v19.4h-68.5v14.1h73.9v22.3h-102V39.4h100.9  L760.2,61.9L760.2,61.9z M865.8,72.7v-0.9c0-3.6-1.2-6.2-3.6-7.9c-2.4-1.7-6.1-2.5-11.3-2.5h-22.6c-9.7,0-15.9,1.2-18.6,3.5  c-2.8,2.3-4.1,7.2-4.1,14.7v12.9c0,6.6,1.5,11.2,4.6,13.7c3,2.5,9.1,3.7,18.2,3.7h16.4c9,0,14.8-0.9,17.6-2.7  c2.8-1.8,4.2-5.1,4.2-10v-1h28.6c0,0.1,0,0.4,0.1,0.7c0.1,2.7,0.2,4.7,0.2,6c0,5.9-0.7,10.8-2.2,14.7c-1.5,3.8-3.8,6.9-7,9.2  c-3,2.2-7,3.8-12.1,4.8c-5,1-12.4,1.4-22.1,1.4h-31.5c-9.6,0-16.7-0.5-21.3-1.5c-4.5-1-8.4-2.8-11.6-5.3c-3.7-2.9-6.4-6.5-8.1-10.8  c-1.7-4.3-2.5-9.7-2.5-16.2V73.8c0-13.2,3.1-22.5,9.4-27.7c6.3-5.2,17.7-7.9,34.2-7.9H852c10.1,0,17.6,0.4,22.4,1.4  c4.8,0.9,8.6,2.5,11.4,4.6c2.9,2.2,5.1,5.3,6.5,9c1.4,3.8,2.1,8.5,2.1,14.2c0,1.4,0,2.4,0,3.1c0,0.7-0.1,1.4-0.2,2.1L865.8,72.7  L865.8,72.7z"
   id="path10"
   style="fill:#ffffff" />
<g
   id="g14">
	<path
   class="st1"
   d="M25.5,113.3h20.1c15.1,0,15.3-0.4,20.8-11.3c0.7-1.4,1.5-2.9,2.2-4.3l19.9-38.2h0c3.9-7.5,8.5-12.3,14.2-15.3   c5.6-3,12.1-4.1,19.9-4.1l0,0h40.1h1v1v20.5v1h-1h-30.2c-1.7,0-3.6,0-5.3-0.1c-11.4-0.2-12.5-0.2-19.6,12.4l-22.9,43.8l0,0   c-2.9,6.1-7.1,10.6-12.5,13.5c-5.4,2.9-12,4.2-19.8,3.9l0,0l-26.8-0.3l-1,0v-1v-20.5l0-1L25.5,113.3L25.5,113.3z"
   id="path12" />
</g>
<polygon
   class="st1"
   points="126.7,137.5 126.7,71.8 126.7,70.9 127.7,70.9 148.2,70.9 149.2,70.9 149.2,71.8 149.2,137.5   149.2,138.5 148.2,138.5 127.7,138.5 126.7,138.5 "
   id="polygon16" />
<polygon
   class="st3"
   points="722.3,168.7 723.5,164.3 725.7,164.3 723.7,168.7 "
   id="polygon18" />
</svg>
