<svg width="125" height="57" viewBox="0 0 125 57" fill="none" xmlns="http://www.w3.org/2000/svg">
<g clip-path="url(#clip0_49_705)">
<path d="M51.29 23.8006C49.1745 23.697 47.3287 24.8991 46.4991 26.6815C46.2709 27.1581 45.7939 27.4483 45.2754 27.4483C44.7569 27.4483 44.2799 27.1581 44.0518 26.6815C43.554 25.6037 42.6829 24.7333 41.6044 24.2359C41.1274 24.0286 40.8371 23.5312 40.8371 23.0131C40.8371 22.4742 41.1482 21.9975 41.6252 21.7903C43.4088 20.9613 44.6117 19.1167 44.508 17.0027C44.3836 14.4535 42.3096 12.3809 39.7586 12.2773C36.8965 12.153 34.5321 14.4328 34.5321 17.2721C34.5321 19.2825 35.7143 21.0234 37.4357 21.811C37.9127 22.0182 38.2031 22.5157 38.2031 23.0338C38.2031 23.5727 37.892 24.0493 37.415 24.2566C35.6313 25.0856 34.4284 26.9302 34.5321 29.0442C34.6565 31.5934 36.7305 33.6452 39.2608 33.7695C41.3763 33.8732 43.2222 32.6711 44.0518 30.8887C44.2799 30.412 44.7569 30.1012 45.2754 30.1012C45.7939 30.1012 46.2709 30.3913 46.4991 30.868C47.2872 32.5882 49.0294 33.7695 51.0411 33.7695C53.8825 33.7695 56.1639 31.4068 56.0395 28.5467C55.915 25.9975 53.8618 23.925 51.3108 23.8006H51.29Z" fill="white"/>
<path d="M21.5074 28.5264C21.3829 25.9772 19.3297 23.9254 16.7787 23.801C14.6424 23.6974 12.7966 24.9202 11.967 26.7233C11.7596 27.1793 11.3033 27.4694 10.8055 27.4694H10.7018C10.2041 27.4694 9.74779 27.1793 9.54039 26.7233C8.71079 24.9202 6.86493 23.6974 4.72871 23.801C2.19843 23.9254 0.124433 25.9772 -6.83824e-06 28.5264C-0.103707 30.6404 1.09921 32.485 2.88285 33.314C3.35987 33.542 3.67097 34.0187 3.67097 34.5368C3.67097 35.0549 3.35987 35.5316 2.88285 35.7596C1.11995 36.5886 -0.103707 38.4332 -6.83824e-06 40.5472C0.124433 43.0964 2.19843 45.1689 4.74945 45.2725C7.61157 45.3969 9.97593 43.1171 9.97593 40.2777C9.97593 38.2674 8.79375 36.5264 7.07233 35.7389C6.59531 35.5109 6.30495 35.0342 6.30495 34.5161C6.30495 33.9979 6.59531 33.5212 7.07233 33.2933C8.15082 32.7959 9.02189 31.9254 9.51966 30.8477C9.72705 30.3917 10.1833 30.0808 10.7018 30.0808H10.7848C11.3033 30.0808 11.7388 30.3917 11.967 30.8477C12.4647 31.9254 13.3358 32.7959 14.4143 33.2933C14.8913 33.5212 15.1817 33.9979 15.1817 34.5161C15.1817 35.0342 14.8706 35.5109 14.3936 35.7389C12.6099 36.5679 11.407 38.4124 11.5107 40.5264C11.6351 43.0757 13.7091 45.1482 16.2602 45.2518C19.1223 45.3762 21.4866 43.0964 21.4866 40.257C21.4866 38.2466 20.3045 36.5057 18.583 35.7181C18.106 35.4902 17.8157 35.0135 17.8157 34.4953C17.8157 33.9772 18.1268 33.5005 18.6038 33.2725C20.3874 32.4435 21.5903 30.599 21.4866 28.485L21.5074 28.5264Z" fill="white"/>
<path d="M32.9974 5.76969C32.9974 2.93032 30.633 0.650524 27.7709 0.774876C25.2199 0.899228 23.1459 2.95104 23.0214 5.50026C22.9177 7.61425 24.1206 9.45881 25.9043 10.2878C26.3813 10.5158 26.6924 10.9925 26.6924 11.5106C26.6924 12.0288 26.402 12.5054 25.925 12.7334C24.2036 13.521 23.0214 15.2619 23.0214 17.2723C23.0214 19.2826 24.2036 21.0236 25.925 21.8111C26.402 22.0184 26.6924 22.5158 26.6924 23.0339C26.6924 23.5521 26.402 24.0288 25.925 24.2567C24.2036 25.0443 23.0214 26.7852 23.0214 28.7956C23.0214 30.806 24.2036 32.5469 25.925 33.3345C26.402 33.5417 26.6924 34.0391 26.6924 34.5573C26.6924 35.0754 26.402 35.5521 25.925 35.7801C24.2036 36.5676 23.0214 38.3086 23.0214 40.3189C23.0214 42.3293 24.2036 44.0702 25.925 44.8578C26.402 45.065 26.6924 45.5624 26.6924 46.0806C26.6924 46.6194 26.3813 47.0961 25.9043 47.3034C24.1206 48.1324 22.9177 49.977 23.0214 52.0909C23.1459 54.6402 25.2199 56.7127 27.7709 56.8163C30.633 56.9407 32.9974 54.6609 32.9974 51.8215C32.9974 49.8111 31.8152 48.0702 30.0938 47.2826C29.6167 47.0754 29.3264 46.578 29.3264 46.0599C29.3264 45.5417 29.6167 45.065 30.0938 44.8371C31.8152 44.0495 32.9974 42.3086 32.9974 40.2982C32.9974 38.2878 31.8152 36.5469 30.0938 35.7593C29.6167 35.5521 29.3264 35.0547 29.3264 34.5365C29.3264 34.0184 29.6167 33.5417 30.0938 33.3137C31.8152 32.5262 32.9974 30.7852 32.9974 28.7749C32.9974 26.7645 31.8152 25.0236 30.0938 24.236C29.6167 24.0288 29.3264 23.5314 29.3264 23.0132C29.3264 22.4951 29.6167 22.0184 30.0938 21.7904C31.8152 21.0029 32.9974 19.2619 32.9974 17.2516C32.9974 15.2412 31.8152 13.5003 30.0938 12.7127C29.6167 12.5054 29.3264 12.008 29.3264 11.4899C29.3264 10.9718 29.6167 10.4951 30.0938 10.2671C31.8152 9.47954 32.9974 7.73861 32.9974 5.72824V5.76969Z" fill="white"/>
<path d="M60.5401 25.9977C60.5193 25.8319 60.6438 25.7075 60.8097 25.7075H85.1999C85.3451 25.7075 85.4695 25.8319 85.4695 25.9769V30.9925C85.4695 31.1376 85.3451 31.2619 85.1999 31.2619H76.738C76.5928 31.2619 76.4684 31.3863 76.4684 31.5314V55.407C76.4684 55.5521 76.344 55.6764 76.1988 55.6764H70.1427C69.9975 55.6764 69.8731 55.5521 69.8731 55.407V31.5314C69.8731 31.3863 69.7486 31.2619 69.6034 31.2619H61.9504C61.7845 31.2619 61.66 31.1168 61.6808 30.9718L60.4778 26.0391L60.5401 25.9977Z" fill="white"/>
<path d="M89.7213 25.7075H95.9225C96.0262 25.7075 96.1092 25.7904 96.1092 25.894V55.4485C96.1092 55.5521 96.0262 55.635 95.9225 55.635H89.7213C89.6176 55.635 89.5346 55.5521 89.5346 55.4485V25.894C89.5346 25.7904 89.6176 25.7075 89.7213 25.7075Z" fill="white"/>
<path d="M105.961 45.7073C106.064 45.7073 106.147 45.7902 106.147 45.9146C106.251 49.7488 109.3 51.241 112.763 51.241C115.066 51.241 118.591 50.5778 118.591 47.5104C118.591 44.2773 114.111 43.7384 109.694 42.5571C105.256 41.3757 100.755 39.6555 100.755 34.0389C100.755 27.9249 106.541 24.9819 111.955 24.9819C118.135 24.9819 123.839 27.6555 123.942 34.412C123.942 34.5363 123.839 34.6192 123.735 34.6192H117.762C117.658 34.6192 117.575 34.5363 117.575 34.4327C117.285 30.9923 114.754 30.1011 111.664 30.1011C109.569 30.1011 107.143 30.9716 107.143 33.5001C107.143 35.8006 108.574 36.0907 116.082 38.0182C118.259 38.5571 124.979 39.9457 124.979 46.7436C124.979 52.2358 120.665 56.3394 112.515 56.3394C105.94 56.3394 99.8009 53.127 99.7594 45.8939C99.7594 45.7695 99.8631 45.6866 99.9668 45.6866H105.94L105.961 45.7073Z" fill="white"/>
</g>
<defs>
<clipPath id="clip0_49_705">
<rect width="125" height="56" fill="white" transform="translate(0 0.774902)"/>
</clipPath>
</defs>
</svg>
