<svg width="95" height="95" viewBox="0 0 95 95" fill="none" xmlns="http://www.w3.org/2000/svg">
<path d="M85.9789 50.4768C86.5155 43.6604 85.2243 36.8242 82.2383 30.6732C77.2958 35.3694 71.4532 39.0157 65.0631 41.3924C65.5769 47.6993 65.2923 54.0459 64.216 60.2816C71.9921 58.3231 79.36 55.0037 85.9789 50.4768ZM57.9262 61.5522C59.1905 55.5079 59.6325 49.3205 59.2404 43.1578C55.472 44.0564 51.5414 44.5314 47.5 44.5314C43.4585 44.5314 39.5279 44.0564 35.7596 43.1578C35.3766 49.3204 35.8185 55.5066 37.0737 61.5522C43.9842 62.6114 51.0157 62.6114 57.9262 61.5522ZM38.6808 67.7628C44.5398 68.456 50.4601 68.456 56.3191 67.7628C54.3055 74.2449 51.3328 80.389 47.5 85.991C43.667 80.3891 40.6944 74.2449 38.6808 67.7628ZM30.7839 60.2855C29.7019 54.0478 29.4172 47.6979 29.9368 41.3884C23.5453 39.0124 17.7013 35.3659 12.7577 30.6693C9.77236 36.8218 8.48246 43.6594 9.02101 50.4768C15.6399 55.0037 23.0079 58.3271 30.7839 60.2855ZM84.5341 58.3934C82.5356 65.1659 78.7201 71.2615 73.5017 76.0186C68.2834 80.7757 61.8617 84.0124 54.9337 85.3774C58.4033 79.5438 61.0513 73.2594 62.8029 66.702C70.4405 65.1012 77.7755 62.2981 84.5341 58.3974V58.3934ZM10.4658 58.3934C17.1237 62.237 24.4387 65.0751 32.197 66.702C33.9486 73.2594 36.5967 79.5438 40.0662 85.3774C33.1387 84.0127 26.7173 80.7766 21.499 76.0202C16.2808 71.2639 12.465 65.1691 10.4658 58.3974V58.3934ZM54.9337 9.61886C64.7414 11.5466 73.4194 17.2024 79.1429 25.3968C74.918 29.6654 69.8746 33.0367 64.315 35.3084C62.817 26.2352 59.6352 17.5222 54.9337 9.61886ZM47.5 9.00928C53.2768 17.4488 57.0723 27.0845 58.6031 37.1966C55.0525 38.107 51.3316 38.5939 47.5 38.5939C43.6683 38.5939 39.9475 38.1109 36.3968 37.1966C37.9275 27.0844 41.723 17.4488 47.5 9.00928ZM40.0662 9.61886C35.3646 17.5222 32.1828 26.2352 30.685 35.3084C25.1253 33.0368 20.0818 29.6654 15.857 25.3968C21.5809 17.2036 30.259 11.5452 40.0662 9.61886Z" fill="#00A7E1"/>
</svg>
