<svg width="95" height="95" viewBox="0 0 95 95" fill="none" xmlns="http://www.w3.org/2000/svg">
<path d="M47.5 29.6875C45.1379 29.6875 42.8726 30.6258 41.2023 32.2961C39.5321 33.9663 38.5938 36.2317 38.5938 38.5938C38.5938 40.9558 39.5321 43.2212 41.2023 44.8914C42.8726 46.5617 45.1379 47.5 47.5 47.5C49.8621 47.5 52.1274 46.5617 53.7977 44.8914C55.4679 43.2212 56.4062 40.9558 56.4062 38.5938C56.4062 36.2317 55.4679 33.9663 53.7977 32.2961C52.1274 30.6258 49.8621 29.6875 47.5 29.6875Z" fill="#00A7E1"/>
<path fill-rule="evenodd" clip-rule="evenodd" d="M5.9375 19.2969C5.9375 15.196 9.2625 11.875 13.3594 11.875H81.6406C85.7375 11.875 89.0625 15.2 89.0625 19.2969V57.8906C89.0625 61.9915 85.7375 65.3125 81.6406 65.3125H13.3594C12.3847 65.3125 11.4196 65.1205 10.5191 64.7475C9.61868 64.3746 8.8005 63.8279 8.11132 63.1387C7.42213 62.4495 6.87544 61.6313 6.50246 60.7309C6.12947 59.8304 5.9375 58.8653 5.9375 57.8906V19.2969ZM32.6562 38.5938C32.6562 34.6569 34.2201 30.8814 37.0039 28.0976C39.7876 25.3139 43.5632 23.75 47.5 23.75C51.4368 23.75 55.2124 25.3139 57.9961 28.0976C60.7799 30.8814 62.3438 34.6569 62.3438 38.5938C62.3438 42.5306 60.7799 46.3061 57.9961 49.0899C55.2124 51.8736 51.4368 53.4375 47.5 53.4375C43.5632 53.4375 39.7876 51.8736 37.0039 49.0899C34.2201 46.3061 32.6562 42.5306 32.6562 38.5938ZM74.2188 35.625C73.4314 35.625 72.6763 35.9378 72.1195 36.4945C71.5628 37.0513 71.25 37.8064 71.25 38.5938V38.6254C71.25 40.2642 72.58 41.5942 74.2188 41.5942H74.2504C75.0378 41.5942 75.7929 41.2814 76.3496 40.7246C76.9064 40.1679 77.2192 39.4128 77.2192 38.6254V38.5938C77.2192 37.8064 76.9064 37.0513 76.3496 36.4945C75.7929 35.9378 75.0378 35.625 74.2504 35.625H74.2188ZM17.8125 38.5938C17.8125 37.8064 18.1253 37.0513 18.682 36.4945C19.2388 35.9378 19.9939 35.625 20.7812 35.625H20.8129C21.6003 35.625 22.3554 35.9378 22.9121 36.4945C23.4689 37.0513 23.7817 37.8064 23.7817 38.5938V38.6254C23.7817 39.4128 23.4689 40.1679 22.9121 40.7246C22.3554 41.2814 21.6003 41.5942 20.8129 41.5942H20.7812C19.9939 41.5942 19.2388 41.2814 18.682 40.7246C18.1253 40.1679 17.8125 39.4128 17.8125 38.6254V38.5938Z" fill="#00A7E1"/>
<path d="M8.90625 71.25C8.11889 71.25 7.36378 71.5628 6.80703 72.1195C6.25028 72.6763 5.9375 73.4314 5.9375 74.2188C5.9375 75.0061 6.25028 75.7612 6.80703 76.318C7.36378 76.8747 8.11889 77.1875 8.90625 77.1875C30.2812 77.1875 50.9833 80.0454 70.6562 85.401C75.3667 86.6835 80.1562 83.1923 80.1562 78.1969V74.2188C80.1562 73.4314 79.8435 72.6763 79.2867 72.1195C78.73 71.5628 77.9749 71.25 77.1875 71.25H8.90625Z" fill="#00A7E1"/>
</svg>
