<svg width="95" height="95" viewBox="0 0 95 95" fill="none" xmlns="http://www.w3.org/2000/svg">
<path d="M17.8125 25.2344C17.8125 20.9039 19.5328 16.7508 22.5949 13.6886C25.657 10.6265 29.8101 8.90625 34.1406 8.90625C38.4711 8.90625 42.6242 10.6265 45.6864 13.6886C48.7485 16.7508 50.4688 20.9039 50.4688 25.2344C50.4688 29.5649 48.7485 33.718 45.6864 36.7801C42.6242 39.8422 38.4711 41.5625 34.1406 41.5625C29.8101 41.5625 25.657 39.8422 22.5949 36.7801C19.5328 33.718 17.8125 29.5649 17.8125 25.2344ZM56.4062 34.1406C56.4062 32.3862 56.7518 30.649 57.4232 29.0282C58.0945 27.4074 59.0786 25.9347 60.3191 24.6941C61.5597 23.4536 63.0324 22.4695 64.6532 21.7982C66.274 21.1268 68.0112 20.7812 69.7656 20.7812C71.52 20.7812 73.2572 21.1268 74.878 21.7982C76.4989 22.4695 77.9716 23.4536 79.2121 24.6941C80.4527 25.9347 81.4367 27.4074 82.1081 29.0282C82.7794 30.649 83.125 32.3862 83.125 34.1406C83.125 37.6838 81.7175 41.0818 79.2121 43.5871C76.7068 46.0925 73.3088 47.5 69.7656 47.5C66.2225 47.5 62.8245 46.0925 60.3191 43.5871C57.8138 41.0818 56.4062 37.6838 56.4062 34.1406ZM5.9375 75.7031C5.9375 68.2232 8.90889 61.0496 14.198 55.7605C19.4871 50.4714 26.6607 47.5 34.1406 47.5C41.6206 47.5 48.7941 50.4714 54.0832 55.7605C59.3724 61.0496 62.3438 68.2232 62.3438 75.7031V75.715L62.3398 76.186C62.3314 76.6894 62.1951 77.1824 61.9438 77.6187C61.6924 78.0549 61.3342 78.4201 60.9029 78.6798C52.8248 83.5444 43.5704 86.1082 34.1406 86.0938C24.3556 86.0938 15.196 83.3863 7.38229 78.6798C6.95024 78.4206 6.59129 78.0556 6.33922 77.6193C6.08715 77.1831 5.95027 76.6898 5.94146 76.186L5.9375 75.7031ZM68.2812 75.715L68.2773 76.285C68.2552 77.6043 67.9401 78.9023 67.355 80.085C74.2651 80.5112 81.1672 79.1335 87.3842 76.0871C87.865 75.8521 88.2733 75.4915 88.5659 75.0434C88.8586 74.5954 89.0247 74.0766 89.0467 73.5419C89.1864 70.2218 88.4664 66.9219 86.9564 63.9617C85.4463 61.0016 83.1975 58.4816 80.4276 56.6457C77.6577 54.8099 74.4607 53.7205 71.1461 53.4829C67.8316 53.2454 64.5119 53.8679 61.5085 55.29C65.9149 61.1823 68.2901 68.3455 68.2773 75.7031L68.2812 75.715Z" fill="#00A7E1"/>
</svg>
