<svg width="79" height="76" viewBox="0 0 79 76" fill="none" xmlns="http://www.w3.org/2000/svg">
<path fill-rule="evenodd" clip-rule="evenodd" d="M24.6562 15.7188C24.6562 11.7819 26.2201 8.00638 29.0039 5.22263C31.7876 2.43889 35.5632 0.875 39.5 0.875C43.4368 0.875 47.2124 2.43889 49.9961 5.22263C52.7799 8.00638 54.3438 11.7819 54.3438 15.7188C54.3438 19.6556 52.7799 23.4311 49.9961 26.2149C47.2124 28.9986 43.4368 30.5625 39.5 30.5625C35.5632 30.5625 31.7876 28.9986 29.0039 26.2149C26.2201 23.4311 24.6562 19.6556 24.6562 15.7188ZM54.3438 27.5938C54.3438 24.4443 55.5949 21.4239 57.8219 19.1969C60.0488 16.9699 63.0693 15.7188 66.2188 15.7188C69.3682 15.7188 72.3886 16.9699 74.6156 19.1969C76.8426 21.4239 78.0938 24.4443 78.0938 27.5938C78.0938 30.7432 76.8426 33.7636 74.6156 35.9906C72.3886 38.2176 69.3682 39.4688 66.2188 39.4688C63.0693 39.4688 60.0488 38.2176 57.8219 35.9906C55.5949 33.7636 54.3438 30.7432 54.3438 27.5938ZM0.90625 27.5938C0.90625 24.4443 2.15736 21.4239 4.38436 19.1969C6.61135 16.9699 9.6318 15.7188 12.7812 15.7188C15.9307 15.7188 18.9511 16.9699 21.1781 19.1969C23.4051 21.4239 24.6562 24.4443 24.6562 27.5938C24.6562 30.7432 23.4051 33.7636 21.1781 35.9906C18.9511 38.2176 15.9307 39.4688 12.7812 39.4688C9.6318 39.4688 6.61135 38.2176 4.38436 35.9906C2.15736 33.7636 0.90625 30.7432 0.90625 27.5938ZM16.9771 48.8381C19.3915 45.054 22.7209 41.9398 26.6577 39.7832C30.5944 37.6267 35.0113 36.4975 39.5 36.5C43.2597 36.4966 46.9778 37.2872 50.4107 38.8202C53.8437 40.3532 56.9142 42.594 59.4212 45.3958C61.9282 48.1977 63.8152 51.4974 64.9586 55.079C66.1021 58.6606 66.4762 62.4434 66.0565 66.1796C66.0051 66.6437 65.8451 67.0893 65.5892 67.4799C65.3333 67.8706 64.9889 68.1954 64.584 68.4279C56.9505 72.8079 48.3007 75.1065 39.5 75.0938C30.376 75.0938 21.8062 72.6712 14.416 68.4279C14.0111 68.1954 13.6667 67.8706 13.4108 67.4799C13.1549 67.0893 12.9949 66.6437 12.9435 66.1796C12.2788 60.11 13.7014 53.995 16.9771 48.8421V48.8381Z" fill="#00A7E1"/>
</svg>
