<svg xmlns="http://www.w3.org/2000/svg" id="Layer_1" data-name="Layer 1" viewBox="0 0 226.67 108.53"><defs><style>.cls-1{fill:#1d1d1b;}.cls-2{fill:#e08309;}.cls-3{fill:#fab900;}.cls-4{fill:#a6b800;}.cls-5{fill:#003770;}.cls-6{fill:#005ca8;}</style></defs><path class="cls-1" d="M207.64,109.06V92.18h9.67v1.24h-8.2v6.21h7.8v1.23h-7.8v7h8.42v1.23ZM193.49,92.18h1.65l5.13,15.55,5.24-15.55h1.54l-5.86,16.88h-1.92Zm-5.74-4.41h1.8l-3.18,3.35h-1.21ZM180,100.83c0-4.52,1.88-9,7.07-9s7.07,4.48,7.07,9c0,3.18-1.31,8.59-7.07,8.59S180,104,180,100.83m1.54-.19c0,3.16,1.19,7.55,5.53,7.55s5.52-4.39,5.52-7.55c0-3.62-1.37-7.58-5.52-7.58s-5.53,4-5.53,7.58M162.2,92.18h2.67l5.43,14.32,5.48-14.32h2.56v16.88h-1.47V93.56l-6.05,15.5h-1.23l-5.88-15.53,0,15.53H162.2Zm-15.77,8.65c0-4.52,1.88-9,7.06-9s7.07,4.48,7.07,9c0,3.18-1.31,8.59-7.07,8.59s-7.06-5.41-7.06-8.59m1.54-.19c0,3.16,1.19,7.55,5.52,7.55s5.53-4.39,5.53-7.55c0-3.62-1.37-7.58-5.53-7.58S148,97,148,100.64m-12.66-8.46h11.57v1.24h-5v15.64h-1.47V93.42h-5.05Zm-12.47,0h1.48v10.29c0,3.13,1.2,5.72,4.4,5.72s4.41-2.59,4.41-5.72V92.18h1.47v10.58c0,5.35-3.34,6.66-5.88,6.66s-5.88-1.31-5.88-6.66ZM112.06,103h7.32l-3-7.71a18.34,18.34,0,0,1-.64-1.75c-.26.61-.46,1.13-.71,1.8Zm-4,6,6.76-16.88h1.9l6.66,16.88h-1.68l-1.83-4.81h-8.34l-1.87,4.81Zm-7.13.41c-4.67,0-7.92-3-7.92-8.85s3.25-8.84,7.92-8.84,7.92,3,7.92,8.84-3.25,8.85-7.92,8.85m0-2.71c2.52,0,4.17-1.85,4.17-6.14s-1.65-6.14-4.17-6.14-4.17,1.85-4.17,6.14,1.66,6.14,4.17,6.14M82,90.79H80.46c.45-2.16,1.18-2.87,2.58-2.87,1.19,0,2.35.87,3.43.87a1.12,1.12,0,0,0,1.13-1h1.53C88.69,90,88,90.66,86.55,90.66c-1.18,0-2.34-.87-3.44-.87a1.11,1.11,0,0,0-1.11,1m-4.83,15.92,5.47-14.53h4.53l6.14,16.88H89.58l-1.35-3.94h-7l-1.41,3.94H74.44l-2.68-4.62a13.85,13.85,0,0,1-1.07-2.23h-.16a17.58,17.58,0,0,1-1.19,2.4l-2.56,4.45h-4l5.5-8.82-5-8.06h4.11L69.58,96a15,15,0,0,1,1.18,2.39c.26-.56.74-1.42,1.16-2.11l2.33-4.1h3.93l-5.05,8.06Zm5-4.19h5.21l-1.87-5.31a17.23,17.23,0,0,1-.66-2.32c-.24.73-.48,1.6-.74,2.32ZM58.27,92.18h3.56v16.88H58.27ZM40.42,109.06l6.35-16.88H51.3l6.14,16.88H53.72l-1.36-3.94h-7L44,109.06Zm5.88-6.54h5.22l-1.88-5.31A17.23,17.23,0,0,1,49,94.89c-.24.73-.48,1.6-.74,2.32Zm-12.24-2.4h2.38c2.08,0,3.08-1,3.08-2.91a2.16,2.16,0,0,0-2.33-2.42H34.06Zm-3.55,8.94V92.18h6.71c4.06,0,5.71,2.32,5.71,5.17,0,3.93-2.89,5.38-5.69,5.38H34.06v6.33Zm188.72,0V92.18h1.48v15.65h7.48v1.23Z" transform="translate(-1.67 -0.94)"></path><polygon class="cls-2" points="189.15 0 152.02 83.73 113.81 83.73 152.02 0 189.15 0"></polygon><polygon class="cls-3" points="152.08 0 188.86 83.73 226.67 83.73 189.22 0 152.08 0"></polygon><path class="cls-4" d="M108.59,59.35H95.37V27.9h13.22A15.92,15.92,0,0,1,124,43.62c0,8.69-7.49,15.73-15.39,15.73m42.77-37.47A41.85,41.85,0,0,0,115.09.94H63.51V84.66h51.6a41.86,41.86,0,0,0,36.25-62.78" transform="translate(-1.67 -0.94)"></path><polygon class="cls-5" points="28.84 0 61.85 0 61.85 32.33 61.85 83.73 28.84 83.73 28.84 0"></polygon><rect class="cls-6" width="93.62" height="26.96"></rect><path class="cls-1" d="M206.25,5.53c.76,0,1.46-.06,1.46-.93s-.64-.87-1.25-.87h-1.19v1.8Zm-1,3.05h-.77V3.1h2.09c1.28,0,1.9.5,1.9,1.54a1.43,1.43,0,0,1-1.42,1.5l1.56,2.44h-.86l-1.48-2.42h-1Zm1,1.23a4,4,0,0,0,4-4.05,4,4,0,1,0-7.93,0,4,4,0,0,0,4,4.05m0-8.87a4.82,4.82,0,1,1-4.82,4.82A4.82,4.82,0,0,1,206.29.94" transform="translate(-1.67 -0.94)"></path></svg>