<svg width="154" height="182" viewBox="0 0 154 182" fill="none" xmlns="http://www.w3.org/2000/svg">
<path d="M129.003 128.793C125.427 108.855 111.336 92.4481 93.8989 82.7616C108.304 65.3373 98.971 42.718 80.326 33.1963C65.9488 25.22 48.5045 23.8736 32.7699 28.2532C24.0838 30.3337 15.6987 33.5861 8.12145 38.3491C7.301 39.1474 4.58135 39.5109 5.52749 41.048C7.25315 42.6556 10.8812 38.6337 12.8838 38.0225C19.6223 34.1356 27.1247 31.8278 34.6671 30.079C49.2374 26.4462 65.1949 27.9312 78.3738 35.3368C95.7925 44.4455 104.221 64.7093 90.4701 80.9804C72.7624 71.0335 28.3405 70.0753 31.3613 99.212C42.4715 126.723 79.4564 100.041 91.5219 85.7764C108.498 95.3071 121.212 111.116 129.003 128.793ZM37.3931 102.148C33.0178 94.8994 38.4125 85.028 45.7358 82.1121C59.2662 76.706 74.9911 77.589 88.0294 83.9897C78.1665 94.4887 50.3054 117.607 37.3931 102.148Z" fill="#00A7E1"/>
<path d="M137.093 109.544C137.683 108.451 136.467 106.713 135.183 107.263C133.353 108.945 135.826 115.04 136.011 117.534C138.129 125.858 139.332 134.408 137.536 142.913C128.797 140.063 119.846 137.815 110.622 137.462C110.62 137.462 110.619 137.462 110.618 137.462C110.617 137.463 110.616 137.464 110.616 137.465C116.988 139.509 123.375 141.53 129.613 143.965C133.059 144.9 136.836 147.687 140.432 146.368C146.154 134.903 138.794 121.374 137.093 109.544Z" fill="#00A7E1"/>
</svg>
