<svg width="25" height="25" viewBox="0 0 25 25" fill="none" xmlns="http://www.w3.org/2000/svg">
<path d="M10.6954 18.6471C12.3735 18.6448 14.0089 18.1179 15.3726 17.14L20.332 22.0998C20.4434 22.2105 20.5756 22.298 20.7211 22.3573C20.8665 22.4165 21.0223 22.4463 21.1793 22.4449C21.8597 22.4449 22.3512 21.9217 22.3512 21.252C22.3512 20.9382 22.2467 20.6453 22.0164 20.4154L17.0883 15.4766C18.124 14.1163 18.7414 12.4319 18.7414 10.6007C18.7414 6.17478 15.1213 2.55469 10.6954 2.55469C6.25924 2.55469 2.64941 6.17478 2.64941 10.6007C2.64941 15.0266 6.25924 18.6471 10.6954 18.6471ZM10.6954 16.91C7.232 16.91 4.38602 14.0538 4.38602 10.6007C4.38602 7.14799 7.232 4.29129 10.6954 4.29129C14.1481 4.29129 17.0048 7.14799 17.0048 10.6007C17.0048 14.0538 14.1481 16.91 10.6954 16.91Z" fill="white" fill-opacity="0.82"/>
</svg>
