<svg width="130" height="130" viewBox="0 0 130 130" fill="none" xmlns="http://www.w3.org/2000/svg">
<path d="M54.2097 54.1664L40.2455 43.0785C38.6205 41.7135 37.808 41.0364 37.9976 40.3323C38.1818 39.6281 39.2272 39.4439 41.3126 39.0864L47.6663 37.9706C50.0876 37.5481 50.3909 36.9252 49.313 34.7206L42.5747 20.9623C41.2422 18.2323 40.5705 16.8673 41.1826 16.2931C41.7947 15.7135 43.1055 16.4664 45.7326 17.9723L57.0588 24.4831C59.0088 25.6044 59.2038 25.5502 60.2113 23.5244L64.783 14.3323C65.9747 11.9381 66.5705 10.741 67.3613 10.8385C68.1576 10.936 68.4447 12.2469 69.0243 14.8577L72.7076 31.541C73.1951 33.7294 73.7584 34.0327 75.8168 33.1444L88.1072 27.8469C90.2468 26.926 91.3138 26.4656 91.8555 26.9964C92.3972 27.5273 91.9638 28.616 91.0972 30.7881L81.2822 54.1664M67.6755 54.1664L64.9672 46.0414M10.833 70.4164H36.5351C40.6951 73.1302 44.1834 73.5039 48.6143 75.7573C54.1122 78.9748 56.7284 83.9581 56.7013 92.0831C56.7013 97.4998 57.4055 103.025 55.6938 106.004C53.733 109.416 41.6918 108.322 40.6084 108.322C40.6084 114.291 36.2426 119.166 29.7751 119.166C23.8384 119.166 18.9905 114.291 18.9905 108.322M36.5351 70.411C30.9884 66.7927 27.9497 60.0544 24.548 54.5944C19.8247 46.4694 13.3572 43.8694 10.898 43.3548M18.9905 108.322C18.9933 105.46 20.1285 102.716 22.1482 100.688C24.1678 98.6603 26.9078 97.5141 29.7697 97.4998C36.2372 97.4998 40.603 102.646 40.603 108.322M18.9905 108.322H10.833M93.4697 70.4002H119.166M93.4697 70.4002C89.3043 73.1194 85.8213 73.4877 81.3905 75.7464C75.8872 78.9639 73.2763 83.9473 73.298 92.0777C73.298 97.4944 72.5938 103.019 74.3109 105.999C76.2718 109.411 88.313 108.317 89.3963 108.317M93.4697 70.4002C99.0109 66.7764 102.055 60.0381 105.451 54.5835C110.175 46.4585 116.648 43.8531 119.101 43.3331M89.3963 108.317C89.3963 114.291 93.7622 119.166 100.23 119.166C106.161 119.166 111.009 114.291 111.009 108.317M89.3963 108.317C89.3963 102.64 93.7622 97.4944 100.23 97.4944C103.092 97.5087 105.832 98.6549 107.851 100.683C109.871 102.71 111.006 105.455 111.009 108.317M111.009 108.317H119.166" stroke="#0C2A42" stroke-width="6.5" stroke-linecap="round" stroke-linejoin="round"/>
</svg>
