<svg width="130" height="130" viewBox="0 0 130 130" fill="none" xmlns="http://www.w3.org/2000/svg">
<path d="M32.5 113.75V102.917C32.5 97.1703 34.7827 91.6593 38.846 87.596C42.9093 83.5327 48.4203 81.25 54.1667 81.25H73.125M119.167 119.167L92.0833 92.0833M92.0833 119.167L119.167 92.0833M43.3333 37.9167C43.3333 43.663 45.6161 49.174 49.6794 53.2373C53.7426 57.3006 59.2536 59.5833 65 59.5833C70.7464 59.5833 76.2574 57.3006 80.3206 53.2373C84.3839 49.174 86.6667 43.663 86.6667 37.9167C86.6667 32.1703 84.3839 26.6593 80.3206 22.596C76.2574 18.5327 70.7464 16.25 65 16.25C59.2536 16.25 53.7426 18.5327 49.6794 22.596C45.6161 26.6593 43.3333 32.1703 43.3333 37.9167Z" stroke="#0C2A42" stroke-width="8" stroke-linecap="round" stroke-linejoin="round"/>
</svg>
