<svg width="131" height="132" viewBox="0 0 131 132" fill="none" xmlns="http://www.w3.org/2000/svg">
<path d="M10.1684 75.6668L10.1184 64.8325C10.1184 64.8325 36.5426 51.4783 54.5799 46.5841L54.4694 21.1159C54.453 17.3164 55.5359 13.5771 57.8243 10.5387C59.5693 8.22063 61.791 5.4573 64.0208 3.20805L66.4258 3.19762C68.6721 5.42451 70.9207 8.1714 72.6857 10.4742C75.0004 13.4927 76.1157 17.2224 76.1351 21.0249L76.2456 46.4931C94.3217 51.2278 120.861 64.3522 120.861 64.3522L120.905 75.1866C120.905 75.1866 94.4052 70.4855 76.347 70.5638C76.347 70.5638 73.9896 81.5474 74.0807 101.872C74.0807 101.872 80.1118 105.456 84.9486 110.251L84.959 112.656C84.959 112.656 74.1195 111.501 65.6932 111.537C57.2668 111.574 46.4407 112.826 46.4407 112.826L46.4273 110.418C51.2223 105.581 57.225 101.942 57.225 101.942C57.1369 81.6205 54.6843 70.6578 54.6843 70.6578C36.6261 70.7361 10.1684 75.6668 10.1684 75.6668Z" stroke="#30CBE8" stroke-width="6"/>
</svg>
