<svg width="130" height="132" viewBox="0 0 130 132" fill="none" xmlns="http://www.w3.org/2000/svg">
<g filter="url(#filter0_d_2639_1188)">
<path d="M9.66836 75.6668L9.61842 64.8325C9.61842 64.8325 36.0426 51.4783 54.0799 46.5841L53.9694 21.1159C53.953 17.3164 55.0359 13.5771 57.3243 10.5387C59.0693 8.22063 61.291 5.4573 63.5208 3.20805L65.9258 3.19762C68.1721 5.42451 70.4207 8.1714 72.1857 10.4742C74.5004 13.4927 75.6157 17.2224 75.6351 21.0249L75.7456 46.4931C93.8217 51.2278 120.361 64.3522 120.361 64.3522L120.405 75.1866C120.405 75.1866 93.9052 70.4855 75.847 70.5638C75.847 70.5638 73.4896 81.5474 73.5807 101.872C73.5807 101.872 79.6118 105.456 84.4486 110.251L84.459 112.656C84.459 112.656 73.6195 111.501 65.1932 111.537C56.7668 111.574 45.9407 112.826 45.9407 112.826L45.9273 110.418C50.7223 105.581 56.725 101.942 56.725 101.942C56.6369 81.6205 54.1843 70.6578 54.1843 70.6578C36.1261 70.7361 9.66836 75.6668 9.66836 75.6668Z" stroke="#0C2A42" stroke-width="6"/>
</g>
<defs>
<filter id="filter0_d_2639_1188" x="-4" y="0.192383" width="138" height="139.808" filterUnits="userSpaceOnUse" color-interpolation-filters="sRGB">
<feFlood flood-opacity="0" result="BackgroundImageFix"/>
<feColorMatrix in="SourceAlpha" type="matrix" values="0 0 0 0 0 0 0 0 0 0 0 0 0 0 0 0 0 0 127 0" result="hardAlpha"/>
<feOffset dy="4"/>
<feGaussianBlur stdDeviation="2"/>
<feComposite in2="hardAlpha" operator="out"/>
<feColorMatrix type="matrix" values="0 0 0 0 0 0 0 0 0 0 0 0 0 0 0 0 0 0 0.25 0"/>
<feBlend mode="normal" in2="BackgroundImageFix" result="effect1_dropShadow_2639_1188"/>
<feBlend mode="normal" in="SourceGraphic" in2="effect1_dropShadow_2639_1188" result="shape"/>
</filter>
</defs>
</svg>
