<svg width="130" height="130" viewBox="0 0 130 130" fill="none" xmlns="http://www.w3.org/2000/svg">
<path d="M4.0625 40.6253H56.875L60.9375 48.7503H8.125L4.0625 40.6253ZM9.47917 56.8753H62.2917L66.3542 65.0003H13.5417L9.47917 56.8753ZM97.5 100.209C101.996 100.209 105.625 96.5795 105.625 92.0837C105.625 87.5878 101.996 83.9587 97.5 83.9587C93.0042 83.9587 89.375 87.5878 89.375 92.0837C89.375 96.5795 93.0042 100.209 97.5 100.209ZM105.625 51.4587H92.0833V65.0003H116.242L105.625 51.4587ZM43.3333 100.209C47.8292 100.209 51.4583 96.5795 51.4583 92.0837C51.4583 87.5878 47.8292 83.9587 43.3333 83.9587C38.8375 83.9587 35.2083 87.5878 35.2083 92.0837C35.2083 96.5795 38.8375 100.209 43.3333 100.209ZM108.333 43.3337L124.583 65.0003V92.0837H113.75C113.75 101.075 106.492 108.334 97.5 108.334C88.5083 108.334 81.25 101.075 81.25 92.0837H59.5833C59.5833 101.075 52.2708 108.334 43.3333 108.334C34.3417 108.334 27.0833 101.075 27.0833 92.0837H16.25V73.1253H27.0833V81.2503H31.2C34.1792 77.9462 38.5125 75.8337 43.3333 75.8337C48.1542 75.8337 52.4875 77.9462 55.4667 81.2503H81.25V32.5003H16.25C16.25 26.4878 21.0708 21.667 27.0833 21.667H92.0833V43.3337H108.333Z" fill="#0C2A42"/>
</svg>
