<svg width="130" height="130" viewBox="0 0 130 130" fill="none" xmlns="http://www.w3.org/2000/svg">
<path d="M121.875 58.9063H106.468L83.8754 36.3188C83.3118 35.7505 82.6408 35.2998 81.9016 34.993C81.1624 34.6861 80.3695 34.5292 79.5691 34.5313H22.4859C21.4816 34.5298 20.4924 34.7766 19.6065 35.2497C18.7205 35.7228 17.9652 36.4075 17.4078 37.243L2.37149 59.8102C2.14925 60.1441 2.03086 60.5364 2.03125 60.9375V85.3125C2.03125 86.9287 2.67327 88.4786 3.81607 89.6214C4.95887 90.7642 6.50884 91.4063 8.125 91.4063H18.4285C18.9191 94.7883 20.6113 97.8805 23.1954 100.117C25.7795 102.353 29.0826 103.584 32.5 103.584C35.9174 103.584 39.2205 102.353 41.8046 100.117C44.3887 97.8805 46.0809 94.7883 46.5715 91.4063H83.4285C83.9191 94.7883 85.6113 97.8805 88.1954 100.117C90.7795 102.353 94.0826 103.584 97.5 103.584C100.917 103.584 104.22 102.353 106.805 100.117C109.389 97.8805 111.081 94.7883 111.571 91.4063H121.875C123.491 91.4063 125.041 90.7642 126.184 89.6214C127.327 88.4786 127.969 86.9287 127.969 85.3125V65C127.969 63.3839 127.327 61.8339 126.184 60.6911C125.041 59.5483 123.491 58.9063 121.875 58.9063ZM20.8203 39.4977C21.0036 39.223 21.251 38.9971 21.5413 38.8396C21.8315 38.6821 22.1557 38.5977 22.4859 38.5938H79.5691C80.1063 38.5947 80.6212 38.8083 81.0012 39.1879L100.72 58.9063H7.85586L20.8203 39.4977ZM32.5 99.5313C30.4913 99.5313 28.5277 98.9356 26.8575 97.8196C25.1873 96.7037 23.8855 95.1175 23.1168 93.2617C22.3481 91.4058 22.147 89.3638 22.5389 87.3936C22.9308 85.4235 23.8981 83.6138 25.3184 82.1935C26.7388 80.7731 28.5485 79.8058 30.5186 79.4139C32.4887 79.022 34.5308 79.2232 36.3866 79.9919C38.2424 80.7606 39.8286 82.0623 40.9446 83.7325C42.0606 85.4027 42.6562 87.3663 42.6562 89.375C42.6562 92.0686 41.5862 94.6519 39.6816 96.5566C37.7769 98.4612 35.1936 99.5313 32.5 99.5313ZM97.5 99.5313C95.4913 99.5313 93.5277 98.9356 91.8575 97.8196C90.1873 96.7037 88.8856 95.1175 88.1169 93.2617C87.3482 91.4058 87.147 89.3638 87.5389 87.3936C87.9308 85.4235 88.8981 83.6138 90.3184 82.1935C91.7388 80.7731 93.5485 79.8058 95.5186 79.4139C97.4887 79.022 99.5308 79.2232 101.387 79.9919C103.242 80.7606 104.829 82.0623 105.945 83.7325C107.061 85.4027 107.656 87.3663 107.656 89.375C107.656 92.0686 106.586 94.6519 104.682 96.5566C102.777 98.4612 100.194 99.5313 97.5 99.5313ZM123.906 85.3125C123.906 85.8512 123.692 86.3679 123.311 86.7488C122.93 87.1298 122.414 87.3438 121.875 87.3438H111.571C111.081 83.9618 109.389 80.8696 106.805 78.6333C104.22 76.397 100.917 75.1661 97.5 75.1661C94.0826 75.1661 90.7795 76.397 88.1954 78.6333C85.6113 80.8696 83.9191 83.9618 83.4285 87.3438H46.5715C46.0809 83.9618 44.3887 80.8696 41.8046 78.6333C39.2205 76.397 35.9174 75.1661 32.5 75.1661C29.0826 75.1661 25.7795 76.397 23.1954 78.6333C20.6113 80.8696 18.9191 83.9618 18.4285 87.3438H8.125C7.58628 87.3438 7.06962 87.1298 6.68869 86.7488C6.30776 86.3679 6.09375 85.8512 6.09375 85.3125V62.9688H121.875C122.414 62.9688 122.93 63.1828 123.311 63.5637C123.692 63.9446 123.906 64.4613 123.906 65V85.3125Z" fill="white"/>
</svg>
