<svg width="131" height="130" viewBox="0 0 131 130" fill="none" xmlns="http://www.w3.org/2000/svg">
<path d="M122.375 58.9063H106.968L84.3754 36.3188C83.8118 35.7505 83.1408 35.2998 82.4016 34.993C81.6624 34.6861 80.8695 34.5292 80.0691 34.5313H22.9859C21.9816 34.5298 20.9924 34.7766 20.1065 35.2497C19.2205 35.7228 18.4652 36.4075 17.9078 37.243L2.87149 59.8102C2.64925 60.1441 2.53086 60.5364 2.53125 60.9375V85.3125C2.53125 86.9287 3.17327 88.4786 4.31607 89.6214C5.45887 90.7642 7.00884 91.4063 8.625 91.4063H18.9285C19.4191 94.7883 21.1113 97.8805 23.6954 100.117C26.2795 102.353 29.5826 103.584 33 103.584C36.4174 103.584 39.7205 102.353 42.3046 100.117C44.8887 97.8805 46.5809 94.7883 47.0715 91.4063H83.9285C84.4191 94.7883 86.1113 97.8805 88.6954 100.117C91.2795 102.353 94.5826 103.584 98 103.584C101.417 103.584 104.72 102.353 107.305 100.117C109.889 97.8805 111.581 94.7883 112.071 91.4063H122.375C123.991 91.4063 125.541 90.7642 126.684 89.6214C127.827 88.4786 128.469 86.9287 128.469 85.3125V65C128.469 63.3839 127.827 61.8339 126.684 60.6911C125.541 59.5483 123.991 58.9063 122.375 58.9063ZM21.3203 39.4977C21.5036 39.223 21.751 38.9971 22.0413 38.8396C22.3315 38.6821 22.6557 38.5977 22.9859 38.5938H80.0691C80.6063 38.5947 81.1212 38.8083 81.5012 39.1879L101.22 58.9063H8.35586L21.3203 39.4977ZM33 99.5313C30.9913 99.5313 29.0277 98.9356 27.3575 97.8196C25.6873 96.7037 24.3855 95.1175 23.6168 93.2617C22.8481 91.4058 22.647 89.3638 23.0389 87.3936C23.4308 85.4235 24.3981 83.6138 25.8184 82.1935C27.2388 80.7731 29.0485 79.8058 31.0186 79.4139C32.9887 79.022 35.0308 79.2232 36.8866 79.9919C38.7424 80.7606 40.3286 82.0623 41.4446 83.7325C42.5606 85.4027 43.1562 87.3663 43.1562 89.375C43.1562 92.0686 42.0862 94.6519 40.1816 96.5566C38.2769 98.4612 35.6936 99.5313 33 99.5313ZM98 99.5313C95.9913 99.5313 94.0277 98.9356 92.3575 97.8196C90.6873 96.7037 89.3856 95.1175 88.6169 93.2617C87.8482 91.4058 87.647 89.3638 88.0389 87.3936C88.4308 85.4235 89.3981 83.6138 90.8184 82.1935C92.2388 80.7731 94.0485 79.8058 96.0186 79.4139C97.9887 79.022 100.031 79.2232 101.887 79.9919C103.742 80.7606 105.329 82.0623 106.445 83.7325C107.561 85.4027 108.156 87.3663 108.156 89.375C108.156 92.0686 107.086 94.6519 105.182 96.5566C103.277 98.4612 100.694 99.5313 98 99.5313ZM124.406 85.3125C124.406 85.8512 124.192 86.3679 123.811 86.7488C123.43 87.1298 122.914 87.3438 122.375 87.3438H112.071C111.581 83.9618 109.889 80.8696 107.305 78.6333C104.72 76.397 101.417 75.1661 98 75.1661C94.5826 75.1661 91.2795 76.397 88.6954 78.6333C86.1113 80.8696 84.4191 83.9618 83.9285 87.3438H47.0715C46.5809 83.9618 44.8887 80.8696 42.3046 78.6333C39.7205 76.397 36.4174 75.1661 33 75.1661C29.5826 75.1661 26.2795 76.397 23.6954 78.6333C21.1113 80.8696 19.4191 83.9618 18.9285 87.3438H8.625C8.08628 87.3438 7.56962 87.1298 7.18869 86.7488C6.80776 86.3679 6.59375 85.8512 6.59375 85.3125V62.9688H122.375C122.914 62.9688 123.43 63.1828 123.811 63.5637C124.192 63.9446 124.406 64.4613 124.406 65V85.3125Z" fill="#30CBE8"/>
</svg>
