<svg width="131" height="130" viewBox="0 0 131 130" fill="none" xmlns="http://www.w3.org/2000/svg">
<path d="M112.734 106.64V107.14H113.234H122.375C123.05 107.14 123.698 107.409 124.176 107.886C124.654 108.364 124.922 109.012 124.922 109.687C124.922 110.363 124.654 111.011 124.176 111.488C123.698 111.966 123.05 112.234 122.375 112.234H8.625C7.94953 112.234 7.30172 111.966 6.82409 111.488C6.34646 111.011 6.07812 110.363 6.07812 109.687C6.07812 109.012 6.34646 108.364 6.82409 107.886C7.30172 107.409 7.94953 107.14 8.625 107.14H17.7656H18.2656V106.64V66.6095V65.4024L17.4121 66.2559L14.4902 69.1779C14.4897 69.1783 14.4892 69.1788 14.4887 69.1793C14.0097 69.6493 13.3644 69.9113 12.6932 69.9082C12.0213 69.9051 11.3779 69.6366 10.903 69.1612C10.4282 68.6858 10.1605 68.0421 10.1582 67.3702C10.1558 66.6989 10.4186 66.0539 10.8893 65.5754C10.8897 65.5749 10.8902 65.5745 10.8906 65.5741L60.8262 15.6333C61.44 15.0195 62.1686 14.5326 62.9705 14.2004C63.7725 13.8682 64.632 13.6973 65.5 13.6973C66.368 13.6973 67.2275 13.8682 68.0295 14.2004C68.8314 14.5326 69.56 15.0195 70.1738 15.6333L120.109 65.5741C120.11 65.5744 120.11 65.5747 120.11 65.575C120.581 66.0536 120.844 66.6988 120.842 67.3702C120.84 68.0421 120.572 68.6858 120.097 69.1612C119.622 69.6366 118.979 69.9051 118.307 69.9082C117.636 69.9113 116.991 69.6494 116.512 69.1795C116.511 69.179 116.51 69.1784 116.51 69.1779L113.588 66.2559L112.734 65.4024V66.6095V106.64ZM23.5058 60.1622L23.3594 60.3087V60.5157V106.64V107.14H23.8594H50.2656H50.7656V106.64V77.1872C50.7656 76.5118 51.034 75.8639 51.5116 75.3863C51.9892 74.9087 52.637 74.6404 53.3125 74.6404H77.6875C78.363 74.6404 79.0108 74.9087 79.4884 75.3863C79.966 75.8639 80.2344 76.5118 80.2344 77.1872V106.64V107.14H80.7344H107.141H107.641V106.64V60.5157V60.3087L107.494 60.1622L66.5761 19.239C66.5758 19.2387 66.5755 19.2384 66.5751 19.2381C66.4344 19.0965 66.2671 18.984 66.0829 18.9073C65.8982 18.8303 65.7001 18.7907 65.5 18.7907C65.2999 18.7907 65.1018 18.8303 64.9171 18.9073C64.7329 18.984 64.5656 19.0965 64.4249 19.2381C64.4245 19.2384 64.4242 19.2387 64.4239 19.239L23.5058 60.1622ZM74.6406 107.14H75.1406V106.64V80.2341V79.7341H74.6406H56.3594H55.8594V80.2341V106.64V107.14H56.3594H74.6406Z" fill="#30CBE8" stroke="#30CBE8"/>
</svg>
