<svg width="130" height="130" viewBox="0 0 130 130" fill="none" xmlns="http://www.w3.org/2000/svg">
<path d="M60.2687 9.28613C58.9962 9.28578 57.7588 9.70367 56.7471 10.4755C55.7354 11.2473 55.0053 12.3302 54.6694 13.5576L27.2069 113.75H14.3137C13.3902 113.75 12.5045 114.117 11.8514 114.77C11.1984 115.423 10.8315 116.309 10.8315 117.233C10.8315 118.156 11.1984 119.042 11.8514 119.695C12.5045 120.348 13.3902 120.715 14.3137 120.715H115.681C116.605 120.715 117.49 120.348 118.143 119.695C118.796 119.042 119.163 118.156 119.163 117.233C119.163 116.309 118.796 115.423 118.143 114.77C117.49 114.117 116.605 113.75 115.681 113.75H102.793L75.3255 13.5576C74.9895 12.3302 74.2595 11.2473 73.2478 10.4755C72.236 9.70367 70.9987 9.28578 69.7262 9.28613H60.2687ZM34.7423 112.59L40.4715 91.6968H75.4462C76.3697 91.6968 77.2554 91.33 77.9084 90.677C78.5615 90.0239 78.9283 89.1382 78.9283 88.2147C78.9283 87.2912 78.5615 86.4055 77.9084 85.7525C77.2554 85.0994 76.3697 84.7326 75.4462 84.7326H42.3798L45.5601 73.1254H70.8033C71.7268 73.1254 72.6125 72.7585 73.2656 72.1055C73.9186 71.4525 74.2855 70.5668 74.2855 69.6433C74.2855 68.7198 73.9186 67.8341 73.2656 67.181C72.6125 66.528 71.7268 66.1611 70.8033 66.1611H47.473L61.1555 16.2504H68.844L95.2526 112.59H34.7423Z" fill="white"/>
</svg>
