<svg width="130" height="130" viewBox="0 0 130 130" fill="none" xmlns="http://www.w3.org/2000/svg">
<path d="M60.2692 9.28613C58.9967 9.28578 57.7593 9.70367 56.7476 10.4755C55.7359 11.2473 55.0058 12.3302 54.6699 13.5576L27.2074 113.75H14.3142C13.3907 113.75 12.505 114.117 11.8519 114.77C11.1989 115.423 10.832 116.309 10.832 117.233C10.832 118.156 11.1989 119.042 11.8519 119.695C12.505 120.348 13.3907 120.715 14.3142 120.715H115.682C116.605 120.715 117.491 120.348 118.144 119.695C118.797 119.042 119.164 118.156 119.164 117.233C119.164 116.309 118.797 115.423 118.144 114.77C117.491 114.117 116.605 113.75 115.682 113.75H102.793L75.326 13.5576C74.99 12.3302 74.26 11.2473 73.2483 10.4755C72.2365 9.70367 70.9992 9.28578 69.7267 9.28613H60.2692ZM34.7427 112.59L40.472 91.6968H75.4467C76.3702 91.6968 77.2559 91.33 77.9089 90.677C78.562 90.0239 78.9288 89.1382 78.9288 88.2147C78.9288 87.2912 78.562 86.4055 77.9089 85.7525C77.2559 85.0994 76.3702 84.7326 75.4467 84.7326H42.3802L45.5606 73.1254H70.8038C71.7273 73.1254 72.613 72.7585 73.2661 72.1055C73.9191 71.4525 74.286 70.5668 74.286 69.6433C74.286 68.7198 73.9191 67.8341 73.2661 67.181C72.613 66.528 71.7273 66.1611 70.8038 66.1611H47.4735L61.156 16.2504H68.8445L95.2531 112.59H34.7427Z" fill="#0C2A42"/>
</svg>
