<svg width="130" height="130" viewBox="0 0 130 130" fill="none" xmlns="http://www.w3.org/2000/svg">
<path d="M65 108.442C64.1406 108.442 63.2775 108.269 62.4108 107.922C61.5442 107.579 60.8039 107.063 60.19 106.373L25.9783 72.0312C22.8186 68.8715 20.4064 65.3128 18.7417 61.355C17.0806 57.3972 16.25 53.3456 16.25 49.2C16.25 41.4253 18.6839 34.8242 23.5517 29.3967C28.4194 23.9692 34.3958 21.2536 41.4808 21.25C45.1858 21.25 48.75 22.021 52.1733 23.5629C55.5931 25.1049 58.6535 27.2715 61.3546 30.0629L65 33.9196L68.4396 30.2742C71.1876 27.3419 74.2896 25.1049 77.7454 23.5629C81.2012 22.021 84.7474 21.25 88.3837 21.25C95.4687 21.25 101.469 23.9656 106.383 29.3967C111.298 34.8278 113.754 41.3819 113.75 49.0592C113.75 53.2769 112.914 57.3647 111.242 61.3225C109.567 65.2803 107.16 68.839 104.022 71.9987L69.68 106.378C68.9903 107.064 68.2536 107.579 67.47 107.922C66.6864 108.265 65.8631 108.437 65 108.437M70.4167 46.0421C70.9042 46.0421 71.3447 46.1468 71.7383 46.3562C72.1356 46.5657 72.4551 46.8564 72.6971 47.2283L82.6367 62.2921H104.699C105.955 60.2012 106.898 58.0364 107.526 55.7975C108.155 53.5586 108.434 51.3143 108.366 49.0646C108.254 42.8354 106.28 37.556 102.445 33.2262C98.614 28.8929 93.9268 26.7262 88.3837 26.7262C85.4479 26.7262 82.5897 27.3221 79.8092 28.5137C77.0286 29.6982 74.62 31.4333 72.5833 33.7192L67.6758 39.0004C67.2967 39.4699 66.885 39.7949 66.4408 39.9754C65.9967 40.156 65.5164 40.2444 65 40.2408C64.4836 40.2372 63.9871 40.1307 63.5104 39.9212C63.0338 39.7118 62.5932 39.4049 62.1887 39.0004L57.2812 33.7192C55.2482 31.4333 52.8468 29.6874 50.0771 28.4812C47.3037 27.2715 44.4383 26.6667 41.4808 26.6667C35.9378 26.6667 31.2506 28.8424 27.4192 33.1937C23.5878 37.5451 21.6703 42.8354 21.6667 49.0646C21.6667 51.3829 21.9754 53.6453 22.5929 55.8517C23.2104 58.0581 24.1132 60.2049 25.3012 62.2921H48.75C49.2375 62.2921 49.6618 62.3968 50.0229 62.6062C50.384 62.8157 50.6856 63.1064 50.9275 63.4783L58.7925 75.2108L67.8762 47.9596C68.0965 47.3637 68.4215 46.8943 68.8512 46.5512C69.281 46.2082 69.8028 46.0385 70.4167 46.0421ZM71.2075 54.7954L62.1237 82.0412C61.9035 82.6407 61.5568 83.1101 61.0838 83.4496C60.6107 83.789 60.0654 83.9587 59.4479 83.9587C58.964 83.9587 58.5415 83.854 58.1804 83.6446C57.8193 83.4351 57.516 83.1444 57.2704 82.7725L47.2279 67.7087H29.3529L64.0521 102.511C64.2326 102.691 64.3915 102.805 64.5287 102.852C64.666 102.899 64.8231 102.921 65 102.917C65.1769 102.913 65.3358 102.892 65.4767 102.852C65.6175 102.812 65.7746 102.699 65.9479 102.511L100.615 67.7087H81.25C80.7661 67.7087 80.3256 67.5878 79.9283 67.3458C79.5311 67.1039 79.2007 66.7951 78.9371 66.4196L71.2075 54.7954Z" fill="#0C2A42"/>
</svg>
