<svg width="131" height="130" viewBox="0 0 131 130" fill="none" xmlns="http://www.w3.org/2000/svg">
<path d="M95.3459 74.8042C102.541 74.8042 108.373 68.9717 108.373 61.7771C108.373 54.5824 102.541 48.75 95.3459 48.75C88.1513 48.75 82.3188 54.5824 82.3188 61.7771C82.3188 68.9717 88.1513 74.8042 95.3459 74.8042Z" stroke="#30CBE8" stroke-width="6" stroke-linecap="round" stroke-linejoin="round"/>
<path d="M42.3981 66.9768V91.3518C42.3981 98.3911 45.1945 105.142 50.172 110.12C55.1495 115.097 61.9005 117.893 68.9398 117.893C75.9791 117.893 82.73 115.097 87.7076 110.12C92.6851 105.142 95.4814 98.3911 95.4814 91.3518V74.8039M42.3981 70.0643H34.0023C31.9074 70.0599 29.8893 69.2751 28.3419 67.8629C26.7945 66.4507 25.8289 64.5126 25.6335 62.4268L22.6814 31.1184C22.4649 28.7367 22.94 26.3432 24.0496 24.2247C25.1593 22.1062 26.8565 20.3528 28.9377 19.1747L29.2085 18.958" stroke="#30CBE8" stroke-width="6" stroke-linecap="round" stroke-linejoin="round"/>
<path d="M34.1917 22.6958C37.0935 22.6958 39.4458 20.3435 39.4458 17.4417C39.4458 14.5399 37.0935 12.1875 34.1917 12.1875C31.2899 12.1875 28.9375 14.5399 28.9375 17.4417C28.9375 20.3435 31.2899 22.6958 34.1917 22.6958Z" stroke="#30CBE8" stroke-width="6" stroke-linecap="round" stroke-linejoin="round"/>
<path d="M42.3979 70.0643H50.7938C52.8934 70.0667 54.9182 69.2848 56.4713 67.872C58.0244 66.4591 58.9938 64.5172 59.1896 62.4268L62.1146 31.1184C62.3346 28.7363 61.861 26.3414 60.751 24.2223C59.641 22.1032 57.9419 20.3502 55.8584 19.1747L55.5875 18.958" stroke="#30CBE8" stroke-width="6" stroke-linecap="round" stroke-linejoin="round"/>
<path d="M50.6043 22.6958C53.5061 22.6958 55.8584 20.3435 55.8584 17.4417C55.8584 14.5399 53.5061 12.1875 50.6043 12.1875C47.7025 12.1875 45.3501 14.5399 45.3501 17.4417C45.3501 20.3435 47.7025 22.6958 50.6043 22.6958Z" stroke="#30CBE8" stroke-width="6" stroke-linecap="round" stroke-linejoin="round"/>
</svg>
