<svg width="130" height="130" viewBox="0 0 130 130" fill="none" xmlns="http://www.w3.org/2000/svg">
<path d="M94.8454 74.8042C102.04 74.8042 107.873 68.9717 107.873 61.7771C107.873 54.5824 102.04 48.75 94.8454 48.75C87.6508 48.75 81.8184 54.5824 81.8184 61.7771C81.8184 68.9717 87.6508 74.8042 94.8454 74.8042Z" stroke="#0C2A42" stroke-width="6" stroke-linecap="round" stroke-linejoin="round"/>
<path d="M41.8976 66.9768V91.3518C41.8976 98.3911 44.694 105.142 49.6715 110.12C54.649 115.097 61.4 117.893 68.4393 117.893C75.4786 117.893 82.2295 115.097 87.2071 110.12C92.1846 105.142 94.9809 98.3911 94.9809 91.3518V74.8039M41.8976 70.0643H33.5018C31.4069 70.0599 29.3888 69.2751 27.8414 67.8629C26.294 66.4507 25.3284 64.5126 25.133 62.4268L22.181 31.1184C21.9644 28.7367 22.4395 26.3432 23.5491 24.2247C24.6588 22.1062 26.356 20.3528 28.4372 19.1747L28.708 18.958" stroke="#0C2A42" stroke-width="6" stroke-linecap="round" stroke-linejoin="round"/>
<path d="M33.6917 22.6958C36.5935 22.6958 38.9458 20.3435 38.9458 17.4417C38.9458 14.5399 36.5935 12.1875 33.6917 12.1875C30.7899 12.1875 28.4375 14.5399 28.4375 17.4417C28.4375 20.3435 30.7899 22.6958 33.6917 22.6958Z" stroke="#0C2A42" stroke-width="6" stroke-linecap="round" stroke-linejoin="round"/>
<path d="M41.8975 70.0643H50.2933C52.3929 70.0667 54.4177 69.2848 55.9708 67.872C57.5239 66.4591 58.4933 64.5172 58.6891 62.4268L61.6141 31.1184C61.8341 28.7363 61.3605 26.3414 60.2505 24.2223C59.1405 22.1032 57.4414 20.3502 55.3579 19.1747L55.087 18.958" stroke="#0C2A42" stroke-width="6" stroke-linecap="round" stroke-linejoin="round"/>
<path d="M50.1038 22.6958C53.0056 22.6958 55.3579 20.3435 55.3579 17.4417C55.3579 14.5399 53.0056 12.1875 50.1038 12.1875C47.202 12.1875 44.8496 14.5399 44.8496 17.4417C44.8496 20.3435 47.202 22.6958 50.1038 22.6958Z" stroke="#0C2A42" stroke-width="6" stroke-linecap="round" stroke-linejoin="round"/>
</svg>
