<svg width="130" height="130" viewBox="0 0 130 130" fill="none" xmlns="http://www.w3.org/2000/svg">
<path d="M128.231 21.8211L65.8285 0.140226C65.2927 -0.0467419 64.7131 -0.0467419 64.1774 0.140226L1.77458 21.8211C1.25798 22.0014 0.808762 22.3462 0.490349 22.807C0.171935 23.2677 0.000413149 23.8211 0 24.3889V78.5911C0 79.3099 0.273941 79.9992 0.761557 80.5075C1.24917 81.0157 1.91052 81.3012 2.60012 81.3012C3.28971 81.3012 3.95106 81.0157 4.43868 80.5075C4.92629 79.9992 5.20023 79.3099 5.20023 78.5911V28.1492L33.7235 38.0614C30.2018 42.9918 27.7986 48.6905 26.6948 54.7286C25.591 60.7668 25.8152 66.9872 27.3507 72.922C28.8862 78.8568 31.6929 84.3514 35.5597 88.9924C39.4265 93.6334 44.2527 97.3 49.6752 99.7164C36.1156 103.605 24.3241 112.678 16.0232 125.903C15.6794 126.504 15.5723 127.221 15.7243 127.903C15.8764 128.585 16.2758 129.179 16.8388 129.561C17.4019 129.943 18.0849 130.083 18.7447 129.952C19.4045 129.821 19.99 129.428 20.3784 128.857C30.6619 112.413 46.9321 102.982 65.0029 102.982C83.0737 102.982 99.344 112.413 109.627 128.85C110.016 129.421 110.601 129.814 111.261 129.945C111.921 130.076 112.604 129.937 113.167 129.555C113.73 129.173 114.129 128.578 114.282 127.896C114.434 127.214 114.326 126.498 113.983 125.896C105.714 112.671 93.8902 103.599 80.3306 99.7096C85.7532 97.2933 90.5794 93.6266 94.4462 88.9856C98.313 84.3446 101.12 78.85 102.655 72.9153C104.191 66.9805 104.415 60.76 103.311 54.7219C102.207 48.6837 99.8041 42.9851 96.2823 38.0547L128.231 26.95C128.747 26.7687 129.195 26.4233 129.512 25.9627C129.829 25.502 130 24.9492 130 24.3822C130 23.8151 129.829 23.2623 129.512 22.8016C129.195 22.341 128.747 21.9957 128.231 21.8143V21.8211ZM98.8045 62.3305C98.8047 67.9838 97.4996 73.5542 94.9996 78.5712C92.4995 83.5881 88.8779 87.9044 84.4405 91.1553C80.0031 94.4063 74.8803 96.4965 69.5047 97.2494C64.1291 98.0023 58.6587 97.3959 53.5553 95.4812C48.4519 93.5666 43.8655 90.4 40.1835 86.249C36.5014 82.0979 33.8318 77.0842 32.4002 71.6313C30.9685 66.1785 30.8168 60.4466 31.9579 54.9198C33.099 49.393 35.4994 44.2335 38.9563 39.8772L64.1774 48.6376C64.7127 48.8271 65.2931 48.8271 65.8285 48.6376L91.0496 39.8772C96.069 46.1892 98.8123 54.1322 98.8045 62.3305ZM65.0029 43.2106L10.823 24.3889L65.0029 5.56722L119.183 24.3889L65.0029 43.2106Z" fill="white"/>
</svg>
